<?xml version="1.0" encoding="UTF-8"?>
<svg width="45px" height="45px" viewBox="0 0 60 60" version="1.1" xmlns="http://www.w3.org/2000/svg" xmlns:xlink="http://www.w3.org/1999/xlink">
    <title>ic_status_calling</title>
    <g id="图标" stroke="none" stroke-width="1" fill="none" fill-rule="evenodd">
        <g id="ic_status_calling">
            <rect id="矩形" x="0" y="0" width="60" height="60"></rect>
            <g id="编组">
                <rect id="矩形" x="0" y="0" width="60" height="60"></rect>
                <path d="M8.22632174,18.7728932 C7.53557439,15.767321 8.44971821,12.6192136 10.6439375,10.442812 C11.8623391,9.07456624 13.0156404,8.28628308 14.1038416,8.07796252 C15.7361434,7.76548169 17.4075053,8.40963078 18.4456821,9.69998475 L21.9778268,14.0662282 C22.1545761,14.282592 22.2930383,14.450996 22.3772881,14.5516304 L22.4544837,14.6421159 C23.7931961,16.1502595 23.7581743,18.41628 22.3941901,19.8814815 L22.2968727,19.9823859 L19.9121497,22.2321109 C18.9644279,23.1770913 18.7951674,24.6469847 19.5037316,25.7810983 C20.8778526,27.9916706 23.4527014,30.9721722 26.2644973,33.7353501 C29.0278278,36.5472986 32.0083294,39.1221474 34.2189017,40.4962684 C35.3530153,41.2048326 36.8229087,41.0355721 37.7678891,40.0878503 L40.0176141,37.7031273 L40.1185185,37.6058099 C41.5441199,36.2786902 43.7278379,36.2096677 45.2339722,37.4399815 L45.6135398,37.7596516 C46.4775797,38.4716385 49.1817085,40.6545646 50.3000152,41.5543179 C51.5903692,42.5924947 52.2345183,44.2638566 51.9220375,45.8961584 C51.7137169,46.9843596 50.9254338,48.1376609 49.557188,49.3560625 C47.3807864,51.5502818 44.232679,52.4644256 41.2271068,51.7736783 C34.8266211,50.2867273 27.2579297,45.2704219 20.9619619,39.0381907 C14.7295781,32.7420703 9.71327269,25.1733789 8.22632174,18.7728932 Z" id="路径" fill="#fff"></path>
            </g>
        </g>
    </g>
</svg>