<?xml version="1.0" encoding="UTF-8"?>
<svg width="50px" height="50px" viewBox="0 0 24 24" version="1.1" xmlns="http://www.w3.org/2000/svg" xmlns:xlink="http://www.w3.org/1999/xlink">
    <defs>
        <path d="M4.3,14l-2,1.8c-0.2,0.2 -0.5,0.2 -0.7,0c-0.1,-0.1 -0.1,-0.2 -0.1,-0.3V8.6c0,-0.3 0.2,-0.5 0.5,-0.5c0.1,0 0.2,0 0.3,0.1l2,1.8l0,0H10L7,3.5C6.7,2.9 6.9,2.3 7.5,2c0.6,-0.3 1.3,-0.1 1.7,0.4l6,7.6l0,0H21c1.1,0 2,0.9 2,2s-0.9,2 -2,2h-6l0,0l-5.8,7.6c-0.4,0.5 -1.1,0.7 -1.7,0.4c-0.6,-0.3 -0.8,-0.9 -0.5,-1.5l3,-6.5l0,0H4.3z" id="path-1"></path>
    </defs>
    <g stroke="none" stroke-width="1" fill="none" fill-rule="evenodd">
        <g >
            <mask id="mask-2" fill="white">
                <use xlink:href="#path-1"></use>
            </mask>
            <use id="合并形状" fill="#FFFFFF" fill-rule="nonzero" xlink:href="#path-1"></use>
        </g>
    </g>
</svg>