<?xml version="1.0" encoding="UTF-8"?>
<svg width="15"
    height="15"
    viewBox="0 0 60 60"
    version="1.1"
    xmlns="http://www.w3.org/2000/svg"
    xmlns:xlink="http://www.w3.org/1999/xlink">
    <path
        d="M52,45.2c0,-0.1 0,-0.2 0,-0.2c0,-0.1 0,-0.2 -0.1,-0.2c0,-0.1 0,-0.1 0,-0.2c0,-0.1 -0.1,-0.1 -0.1,-0.2c0,-0.1 -0.1,-0.1 -0.1,-0.2c0,-0.1 -0.1,-0.1 -0.1,-0.2c0,-0.1 -0.1,-0.1 -0.1,-0.2c-0.1,-0.1 -0.1,-0.1 -0.2,-0.2c-0.1,0 -0.1,-0.1 -0.2,-0.1c0,0 0,0 0,0s0,0 0,0l-8.9,-6c-0.3,-0.2 -0.7,-0.4 -1.1,-0.4c0,0 -0.1,0 -0.1,0c-0.1,0 -0.1,0 -0.2,0c-0.1,0 -0.2,0 -0.2,0c0,0 -0.1,0 -0.1,0c-0.2,0.1 -0.5,0.1 -0.7,0.3l-4.5,3.1l-0.2,0.1c-0.6,0.4 -1.4,-0.1 -2.3,-0.5c-0.2,-0.2 -0.5,-0.3 -0.7,-0.5c-2.2,-1.5 -4.3,-3.3 -6.3,-5.3c-0.1,-0.1 -0.1,-0.1 -0.2,-0.2l0,0c-1.9,-1.9 -3.6,-3.9 -5.1,-6.1c-0.2,-0.2 -0.3,-0.4 -0.5,-0.7c-0.5,-0.8 -0.9,-1.7 -0.5,-2.3l0.1,-0.2l3.1,-4.5c0.1,-0.2 0.2,-0.5 0.3,-0.7c0,0 0,-0.1 0,-0.1c0,-0.1 0,-0.1 0,-0.2c0,-0.1 0,-0.1 0,-0.2c0,0 0,-0.1 0,-0.1c0,-0.4 -0.2,-0.8 -0.4,-1.1l-6,-8.9c0,0 0,0 0,0s0,0 0,0c0,-0.1 -0.1,-0.1 -0.1,-0.2c-0.1,-0.1 -0.1,-0.1 -0.2,-0.2c-0.1,0 -0.1,-0.1 -0.2,-0.1c-0.1,0 -0.1,-0.1 -0.2,-0.1c-0.1,0 -0.1,-0.1 -0.2,-0.1c-0.1,0 -0.1,-0.1 -0.2,-0.1c-0.1,0 -0.1,0 -0.2,0c-0.1,0 -0.2,0 -0.2,-0.1c-0.1,0 -0.2,0 -0.2,0c-0.1,0 -0.1,0 -0.2,0c-0.1,0 -0.2,0 -0.3,0c0,0 -0.1,0 -0.1,0c-0.3,0.1 -0.6,0.2 -0.8,0.4L12.6,9l-0.7,0.5l-2,1.4c0,0 -0.1,0.1 -0.4,0.3c0,0 -0.1,0.1 -0.1,0.1c-0.5,0.6 -1.4,1.8 -1.4,4c0,1.2 0.4,3.1 1.1,5.1c2.1,5.4 5.1,10.5 9,15.1c0.3,0.4 0.6,0.7 1,1.1c0.7,0.7 1.3,1.5 2,2.2c0.1,0.1 0.1,0.1 0.2,0.2l0,0c0.6,0.6 1.3,1.2 2,1.8c0.4,0.3 0.8,0.7 1.1,1c4.6,3.9 9.7,6.9 15.1,9c2.1,0.7 3.9,1.1 5.1,1.1c2.2,0 3.4,-0.8 4,-1.4c0,0 0.1,-0.1 0.1,-0.1c0.2,-0.2 0.3,-0.4 0.3,-0.4l1.4,-2l0.5,-0.7l0.6,-0.8c0.2,-0.3 0.3,-0.5 0.4,-0.8c0,0 0,-0.1 0,-0.1c0,-0.1 0,-0.2 0,-0.4C52,45.3 52,45.2 52,45.2"
        fill="#FFFFFF"></path>
</svg>