<svg xmlns="http://www.w3.org/2000/svg" width="32" height="24" version="1.1" viewBox="0 0 80 60">
    <g>
        <path fill="#ffffff" d="M34.9999,43.0001 C36.6569,43.0001 37.9999,44.3441 37.9999,46.0001 L37.9999,49.0001 C37.9999,50.6561 36.6569,52.0001 34.9999,52.0001 C33.3429,52.0001 31.9999,50.6561 31.9999,49.0001 L31.9999,46.0001 C31.9999,44.3441 33.3429,43.0001 34.9999,43.0001 Z M44.9999,34.0001 C46.6569,34.0001 47.9999,35.3441 47.9999,37.0001 L47.9999,49.0001 C47.9999,50.6561 46.6569,52.0001 44.9999,52.0001 C43.3429,52.0001 41.9999,50.6561 41.9999,49.0001 L41.9999,37.0001 C41.9999,35.3441 43.3429,34.0001 44.9999,34.0001 Z M54.9999,25.0001 C56.6569,25.0001 57.9999,26.3441 57.9999,28.0001 L57.9999,49.0001 C57.9999,50.6561 56.6569,52.0001 54.9999,52.0001 C53.3429,52.0001 51.9999,50.6561 51.9999,49.0001 L51.9999,28.0001 C51.9999,26.3441 53.3429,25.0001 54.9999,25.0001 Z M64.9999,16.0001 C66.6569,16.0001 67.9999,17.3441 67.9999,19.0001 L67.9999,49.0001 C67.9999,50.6561 66.6569,52.0001 64.9999,52.0001 C63.3429,52.0001 61.9999,50.6561 61.9999,49.0001 L61.9999,19.0001 C61.9999,17.3441 63.3429,16.0001 64.9999,16.0001 Z"/>
        <path fill="#ffffff" opacity=".3" d="M74.9999,8.0001 C76.6569,8.0001 77.9999,9.3441 77.9999,11.0001 L77.9999,49.0001 C77.9999,50.6561 76.6569,52.0001 74.9999,52.0001 C73.3429,52.0001 71.9999,50.6561 71.9999,49.0001 L71.9999,11.0001 C71.9999,9.3441 73.3429,8.0001 74.9999,8.0001 Z"/>
    </g>
</svg>
