<?xml version="1.0" encoding="UTF-8"?>
<svg width="40px" height="40px" viewBox="0 0 40 40" version="1.1" xmlns="http://www.w3.org/2000/svg" xmlns:xlink="http://www.w3.org/1999/xlink">
    <title>ic_setting</title>
    <defs>
        <path d="M21.70825,10 C22.2403697,10 22.7141584,10.3368744 22.8889143,10.8394774 L23.5345139,12.6962256 L24.6365526,13.3876015 L26.6269318,13.1429882 C27.1184463,13.0825817 27.599281,13.3180312 27.8529462,13.7433315 L29.465253,16.4464621 C29.7338645,16.8968103 29.6928445,17.4669371 29.3625299,17.8741882 L28.23464,19.2648046 L28.23464,20.8118425 L29.3337788,22.0806534 C29.682584,22.4833022 29.7378741,23.0627704 29.4715092,23.5241184 L27.8583026,26.3181911 C27.6056824,26.7557249 27.1145129,26.9981707 26.6135605,26.9326025 L24.6288399,26.6728366 L23.4599896,27.3872254 L22.889304,29.1374927 C22.7215788,29.6518995 22.2419403,30 21.70088,30 L18.29912,30 C17.7580597,30 17.2784212,29.6518995 17.1106962,29.1374932 L16.5400104,27.3872254 L15.3711601,26.6728366 L13.3864427,26.9326021 C12.8854875,26.9981708 12.3943183,26.755725 12.1416957,26.3181882 L10.5284926,23.5241201 C10.2621249,23.0627742 10.3174154,22.4833042 10.6662208,22.0806539 L11.7653602,20.8118427 L11.7653602,19.2648041 L10.6374685,17.8741876 C10.3071561,17.4669327 10.2661378,16.8968087 10.5347495,16.4464594 L12.1470502,13.7433353 C12.4007243,13.3180296 12.8815559,13.0825817 13.3730673,13.1429881 L15.3634473,13.3876015 L16.4658691,12.6959847 L17.1110824,10.8396162 C17.2858001,10.3369413 17.7596238,10 18.2917975,10 L21.70825,10 Z M21.5304936,11.5 L18.4695743,11.5 L17.8538794,13.27144 C17.7605166,13.540056 17.5783534,13.7688075 17.3374599,13.9199336 L16.0853746,14.7054435 C15.8420901,14.8580666 15.5536693,14.9222632 15.2686124,14.8872319 L13.3518287,14.6516634 L11.9124338,17.0648999 L12.9861789,18.3887571 C13.1667917,18.6114395 13.2653602,18.8894453 13.2653602,19.176165 L13.2653602,20.9050675 C13.2653602,21.2057106 13.1570047,21.4962836 12.9601547,21.7235211 L11.9165234,22.9282554 L13.357269,25.4236272 L15.2640167,25.1740667 C15.547158,25.1370108 15.8344499,25.198016 16.078104,25.3469334 L17.4009675,26.1554535 C17.6549776,26.3106996 17.8452419,26.5515036 17.9375213,26.8345293 L18.4805585,28.5 L21.5194415,28.5 L22.0624765,26.8345358 C22.1547581,26.5515036 22.3450224,26.3106996 22.5990285,26.1554559 L23.9218986,25.3469318 C24.1655501,25.198016 24.452842,25.1370108 24.7359895,25.1740675 L26.642731,25.4236272 L28.0834771,22.928256 L27.0398456,21.7235209 C26.8429959,21.4962837 26.73464,21.2057107 26.73464,20.9050675 L26.73464,19.176165 C26.73464,18.8894447 26.8332092,18.6114386 27.0138201,18.3887593 L28.0875663,17.0648986 L26.6481702,14.6516635 L24.7313836,14.8872324 C24.4463307,14.9222632 24.1579099,14.8580666 23.9146178,14.7054387 L22.6629375,13.9201835 C22.4220858,13.7690825 22.2399422,13.5403849 22.1465682,13.2718339 L21.5304936,11.5 Z M20,16.25 C22.0710684,16.25 23.75,17.9289319 23.75,20 C23.75,22.0710686 22.0710686,23.75 20,23.75 C17.9289319,23.75 16.25,22.0710684 16.25,20 C16.25,17.9289322 17.9289322,16.25 20,16.25 Z M20,17.25 C18.4812169,17.25 17.25,18.4812169 17.25,20 C17.25,21.5187836 18.4812166,22.75 20,22.75 C21.5187839,22.75 22.75,21.5187839 22.75,20 C22.75,18.4812166 21.5187836,17.25 20,17.25 Z" id="path-1"></path>
    </defs>
    <g id="ic_setting" stroke="none" stroke-width="1" fill="none" fill-rule="evenodd">
        <rect id="矩形" fill-opacity="0.2" fill="#FFFFFF" x="0" y="0" width="40" height="40" rx="20"></rect>
        <mask id="mask-2" fill="white">
            <use xlink:href="#path-1"></use>
        </mask>
        <use id="Combined-Shape" fill="#FFFFFF" xlink:href="#path-1"></use>
    </g>
</svg>