<?xml version="1.0" encoding="UTF-8"?>
<svg width="14px" height="14px" viewBox="0 0 14 14" version="1.1" xmlns="http://www.w3.org/2000/svg" xmlns:xlink="http://www.w3.org/1999/xlink">
    <title>ic_small_pause</title>
    <g id="ic_small_pause" stroke="none" stroke-width="1" fill="none" fill-rule="evenodd">
        <g id="ic/camera/shutter/small/pause" transform="translate(2.916667, 2.625000)" fill="#FFFFFF">
            <path d="M0.291666667,0 L2.625,0 C2.78608305,-3.15731458e-16 2.91666667,0.130583615 2.91666667,0.291666667 L2.91666667,8.45833333 C2.91666667,8.61941639 2.78608305,8.75 2.625,8.75 L0.291666667,8.75 C0.130583615,8.75 1.30749287e-16,8.61941639 0,8.45833333 L0,0.291666667 C-1.97269844e-17,0.130583615 0.130583615,3.07146233e-16 0.291666667,0 Z M5.54166667,0 L7.875,0 C8.03608305,-3.15731458e-16 8.16666667,0.130583615 8.16666667,0.291666667 L8.16666667,8.45833333 C8.16666667,8.61941639 8.03608305,8.75 7.875,8.75 L5.54166667,8.75 C5.38058361,8.75 5.25,8.61941639 5.25,8.45833333 L5.25,0.291666667 C5.25,0.130583615 5.38058361,3.07146233e-16 5.54166667,0 Z" id="small_pause"></path>
        </g>
    </g>
</svg>