<?xml version="1.0" encoding="UTF-8"?>
<svg width="40px" height="40px" viewBox="0 0 40 40" version="1.1" xmlns="http://www.w3.org/2000/svg" xmlns:xlink="http://www.w3.org/1999/xlink">
    <title>Public/ic_public_detail</title>
    <defs>
        <path d="M20,0 C31.045695,0 40,8.954305 40,20 C40,31.045695 31.045695,40 20,40 C8.954305,40 0,31.045695 0,20 C0,8.954305 8.954305,0 20,0 Z M20,2.72727273 C10.4605361,2.72727273 2.72727273,10.4605361 2.72727273,20 C2.72727273,29.5394639 10.4605361,37.2727273 20,37.2727273 C29.5394639,37.2727273 37.2727273,29.5394639 37.2727273,20 C37.2727273,10.4605361 29.5394639,2.72727273 20,2.72727273 Z M20.030303,15.9090909 C20.7666827,15.9090909 21.3636364,16.5060446 21.3636364,17.2424242 L21.3636364,29.5757576 C21.3636364,30.3121372 20.7666827,30.9090909 20.030303,30.9090909 L19.969697,30.9090909 C19.2333173,30.9090909 18.6363636,30.3121372 18.6363636,29.5757576 L18.6363636,17.2424242 C18.6363636,16.5060446 19.2333173,15.9090909 19.969697,15.9090909 L20.030303,15.9090909 Z M20,9.09090909 C21.2551926,9.09090909 22.2727273,10.1084438 22.2727273,11.3636364 C22.2727273,12.618829 21.2551926,13.6363636 20,13.6363636 C18.7448074,13.6363636 17.7272727,12.618829 17.7272727,11.3636364 C17.7272727,10.1084438 18.7448074,9.09090909 20,9.09090909 Z" id="path-1"></path>
    </defs>
    <g id="页面-1" stroke="none" stroke-width="1" fill="none" fill-rule="evenodd">
        <g id="设置失败" transform="translate(-621.000000, -72.000000)">
            <g id="Public/ic_public_detail" transform="translate(621.000000, 72.000000)">
                <mask id="mask-2" fill="white">
                    <use xlink:href="#path-1"></use>
                </mask>
                <use id="形状结合" fill="#F67D6C" fill-rule="nonzero" xlink:href="#path-1"></use>
            </g>
        </g>
    </g>
</svg>