<?xml version="1.0" encoding="UTF-8"?>
<svg width="40px" height="40px" viewBox="0 0 40 40" version="1.1" xmlns="http://www.w3.org/2000/svg" xmlns:xlink="http://www.w3.org/1999/xlink">
    <title>Public/ic_public_todo</title>
    <defs>
        <path d="M20,0 C31.045695,0 40,8.954305 40,20 C40,31.045695 31.045695,40 20,40 C8.954305,40 0,31.045695 0,20 C0,8.954305 8.954305,0 20,0 Z M20,2.72727273 C10.4605361,2.72727273 2.72727273,10.4605361 2.72727273,20 C2.72727273,29.5394639 10.4605361,37.2727273 20,37.2727273 C29.5394639,37.2727273 37.2727273,29.5394639 37.2727273,20 C37.2727273,10.4605361 29.5394639,2.72727273 20,2.72727273 Z M31.2494261,14.0357635 C31.7629401,14.5492776 31.7812799,15.3704535 31.3044454,15.9059434 L31.2494261,15.9642365 L29.4458259,17.7673636 L29.4312442,17.7824183 L20.4317034,26.7819592 C19.2150131,27.9986495 17.2581175,28.0239972 16.0105853,26.8580023 L15.931933,26.7819592 L9.65966484,20.5096911 C9.44665159,20.2966778 9.31884364,20.0307248 9.27624099,19.7541838 L9.26204011,19.615227 L9.26204011,19.4756821 C9.27860781,19.1503059 9.41114939,18.8297335 9.65966484,18.581218 C10.1731789,18.0677039 10.9943549,18.0493642 11.5298448,18.5261987 L11.5881379,18.581218 L17.2188259,24.2113636 L17.3242108,24.3067623 C17.8393162,24.7244204 18.587971,24.7107267 19.0877616,24.2656812 L19.1460547,24.2106618 L21.0748259,22.2823636 L27.5027712,15.8539453 L27.5118259,15.8453636 L29.320953,14.0357635 C29.8534861,13.5032304 30.7168929,13.5032304 31.2494261,14.0357635 Z" id="path-1"></path>
    </defs>
    <g id="页面-1" stroke="none" stroke-width="1" fill="none" fill-rule="evenodd">
        <g id="设置成功" transform="translate(-619.000000, -72.000000)">
            <g id="Public/ic_public_todo" transform="translate(619.000000, 72.000000)">
                <mask id="mask-2" fill="white">
                    <use xlink:href="#path-1"></use>
                </mask>
                <use id="形状结合" fill="#007DFF" fill-rule="nonzero" xlink:href="#path-1"></use>
            </g>
        </g>
    </g>
</svg>