<?xml version="1.0" encoding="UTF-8"?>
<svg width="40px" height="38px" viewBox="0 0 40 38" version="1.1" xmlns="http://www.w3.org/2000/svg" xmlns:xlink="http://www.w3.org/1999/xlink">
    <title>ic_start</title>
    <g id="页面-1" stroke="none" stroke-width="1" fill="none" fill-rule="evenodd">
        <g id="您的单位将管理此设备" transform="translate(-620.000000, -73.000000)">
            <g id="编组" transform="translate(620.000000, 72.000000)">
                <rect id="矩形" x="0" y="0" width="40" height="40"></rect>
                <path d="M35.40625,8.27205882 L29.3867188,8.27205882 L29.3867188,6.19301471 C29.3867188,3.84742647 29.3867188,1.875 25.0519531,1.875 L14.6355469,1.875 C10.3007813,1.875 10.3007812,3.84742647 10.3007812,6.19301471 L10.3007812,8.27205882 L4.59375,8.27205882 C0.3125,8.27205882 0.3125,10.1911765 0.3125,12.5367647 L0.3125,33.8602941 C0.3125,36.2058824 0.3125,38.125 4.59375,38.125 L35.40625,38.125 C39.6875,38.125 39.6875,36.2058824 39.6875,33.8602941 L39.6875,12.5367647 C39.6875,10.1911765 40.3125,8.27205882 35.40625,8.27205882 Z M28.671875,10.8455882 L28.671875,35.5514706 L10.703125,35.5514706 L10.703125,10.8455882 L28.671875,10.8455882 Z M12.8249503,5.49766639 C12.8249503,4.81978657 13.403425,4.3781811 13.9487785,4.3781811 L25.3644531,4.3781811 C26.6163732,4.3781811 26.8758375,4.69702479 26.8758375,5.49766639 L26.8758375,8.27205882 L12.8249503,8.27205882 L12.8249503,5.49766639 Z M2.78933474,34.4852941 L2.78933474,11.9117647 C2.78933474,11.3253676 3.27097537,10.8455882 3.85964724,10.8455882 L8.1171875,10.8455882 L8.1171875,35.5514706 L3.85964724,35.5514706 C3.27097537,35.5514706 2.78933474,35.0716912 2.78933474,34.4852941 Z M37.0662281,34.4852941 C37.0662281,35.0716912 36.5845875,35.5514706 35.9959156,35.5514706 L31.2578125,35.5514706 L31.2578125,10.8455882 L35.9959156,10.8455882 C36.5845875,10.8455882 37.0662281,11.3253676 37.0662281,11.9117647 L37.0662281,34.4852941 Z" id="形状" fill="#007DFF" fill-rule="nonzero"></path>
            </g>
        </g>
    </g>
</svg>