<?xml version="1.0" encoding="UTF-8"?>
<svg width="48px" height="48px" viewBox="0 0 48 48" version="1.1" xmlns="http://www.w3.org/2000/svg" xmlns:xlink="http://www.w3.org/1999/xlink">
    <title>编组 2</title>
    <g id="手动部署--移动端" stroke="none" stroke-width="1" fill="none" fill-rule="evenodd">
        <g id="03-增强服务" transform="translate(-826.000000, -100.000000)">
            <g id="编组-2" transform="translate(826.000000, 100.000000)">
                <rect id="矩形" x="0" y="0" width="48" height="48"></rect>
                <path d="M42.4875,9.92647059 L35.2640625,9.92647059 L35.2640625,7.43161765 C35.2640625,4.61691176 35.2640625,2.25 30.0623438,2.25 L17.5626562,2.25 C12.3609375,2.25 12.3609375,4.61691176 12.3609375,7.43161765 L12.3609375,9.92647059 L5.5125,9.92647059 C0.375,9.92647059 0.375,12.2294118 0.375,15.0441176 L0.375,40.6323529 C0.375,43.4470588 0.375,45.75 5.5125,45.75 L42.4875,45.75 C47.625,45.75 47.625,43.4470588 47.625,40.6323529 L47.625,15.0441176 C47.625,12.2294118 48.375,9.92647059 42.4875,9.92647059 Z M34.40625,13.0147059 L34.40625,42.6617647 L12.84375,42.6617647 L12.84375,13.0147059 L34.40625,13.0147059 Z M15.3899404,6.59719967 C15.3899404,5.78374388 16.08411,5.25381732 16.7385342,5.25381732 L30.4373438,5.25381732 C31.9396479,5.25381732 32.251005,5.63642975 32.251005,6.59719967 L32.251005,9.92647059 L15.3899404,9.92647059 L15.3899404,6.59719967 Z M3.34720169,41.3823529 L3.34720169,14.2941176 C3.34720169,13.5904412 3.92517044,13.0147059 4.63157669,13.0147059 L9.740625,13.0147059 L9.740625,42.6617647 L4.63157669,42.6617647 C3.92517044,42.6617647 3.34720169,42.0860294 3.34720169,41.3823529 Z M44.4794737,41.3823529 C44.4794737,42.0860294 43.901505,42.6617647 43.1950987,42.6617647 L37.509375,42.6617647 L37.509375,13.0147059 L43.1950987,13.0147059 C43.901505,13.0147059 44.4794737,13.5904412 44.4794737,14.2941176 L44.4794737,41.3823529 Z" id="形状" fill="#0A59F7" fill-rule="nonzero"></path>
            </g>
        </g>
    </g>
</svg>