<?xml version="1.0" encoding="UTF-8"?>
<svg width="22px" height="22px" viewBox="0 0 22 22" version="1.1" xmlns="http://www.w3.org/2000/svg" xmlns:xlink="http://www.w3.org/1999/xlink">
    <title>ic_applet</title>
    <g id="页面-1" stroke="none" stroke-width="1" fill="none" fill-rule="evenodd">
        <g id="发现" transform="translate(-24.000000, -357.000000)">
            <g id="编组-4备份-4" transform="translate(12.000000, 340.000000)">
                <g id="List/single-line/48/with-right-element备份" transform="translate(12.000000, 16.000000)">
                    <g id="ic_applet" transform="translate(0.000000, 1.000000)">
                        <rect id="矩形" x="0" y="0" width="22" height="22"></rect>
                        <path d="M11,1 C16.5228571,1 21,5.47714286 21,11 C21,16.5228571 16.5228571,21 11,21 C5.47714286,21 1,16.5228571 1,11 C1,5.47714286 5.47714286,1 11,1 Z M11,2.42857143 C6.26613839,2.42857143 2.42857143,6.26613839 2.42857143,11 C2.42857143,15.7338616 6.26613839,19.5714286 11,19.5714286 C15.7338616,19.5714286 19.5714286,15.7338616 19.5714286,11 C19.5714286,6.26613839 15.7338616,2.42857143 11,2.42857143 Z M13.3277679,5.58399554 C14.9937723,5.58399554 16.3492634,6.93948661 16.3492634,8.60549107 C16.3492634,9.77866071 15.6610045,10.8554911 14.5960268,11.3485045 C14.502288,11.3920684 14.4001752,11.4146619 14.296808,11.4147098 C14.0186123,11.4148874 13.765693,11.2533209 13.6489062,11.0008259 C13.4850446,10.6468527 13.6359598,10.2277009 13.9859375,10.0587277 L13.9965848,10.053683 C14.5590848,9.79330357 14.9224107,9.22493304 14.9224107,8.60546875 C14.9224107,7.72613839 14.2071205,7.01084821 13.3277679,7.01084821 C12.4572321,7.01084821 11.7474554,7.71191964 11.7333482,8.57915179 L11.733125,8.60549107 C11.733125,8.62511161 11.7321652,8.64549107 11.7302679,8.66754464 L11.7300446,8.67232143 L11.7300446,13.3669643 L11.7219643,13.3669643 L11.7219643,13.4227679 C11.7219643,15.0887946 10.3664732,16.4442634 8.70049107,16.4442634 C7.03448661,16.4442634 5.67899554,15.0887946 5.67899554,13.4227902 C5.67899554,12.2489955 6.36774554,11.171942 7.43348214,10.6791518 C7.79107143,10.51375 8.21506696,10.6696205 8.38046875,11.0272768 C8.54419643,11.3813393 8.39308036,11.8004241 8.04301339,11.9692411 L8.03234375,11.9742634 C7.46946429,12.2345312 7.10584821,12.8029911 7.10584821,13.4227902 C7.10584821,14.3021205 7.82113839,15.0174107 8.70049107,15.0174107 C9.57982143,15.0174107 10.2951116,14.3021205 10.2951116,13.4227679 C10.2951116,13.3869866 10.2977902,13.3512277 10.3031027,13.3158259 L10.3037277,13.3116964 L10.3037054,8.66129464 L10.3062946,8.66129464 L10.3062946,8.60549107 C10.3062946,6.95616071 11.6347768,5.61116071 13.2778795,5.58441964 L13.3277679,5.58399554 L13.3277679,5.58399554 Z" id="形状" fill="#6236FF" fill-rule="nonzero"></path>
                    </g>
                </g>
            </g>
        </g>
    </g>
</svg>