<?xml version="1.0" encoding="UTF-8"?>
<svg width="20px" height="20px" viewBox="0 0 20 20" version="1.1" xmlns="http://www.w3.org/2000/svg" xmlns:xlink="http://www.w3.org/1999/xlink">
    <title>ic_scan</title>
    <defs>
        <filter color-interpolation-filters="auto" id="filter-1">
            <feColorMatrix in="SourceGraphic" type="matrix" values="0 0 0 0 0.000000 0 0 0 0 0.490196 0 0 0 0 1.000000 0 0 0 1.000000 0"></feColorMatrix>
        </filter>
        <path d="M19.4791667,12.8333333 C19.8272211,12.8333333 20.1148667,13.0919744 20.1603906,13.4275437 L20.1666667,13.5208333 L20.1666667,16.5 C20.1666667,18.4636791 18.6230289,20.0668223 16.6830036,20.1621793 L16.5,20.1666667 L13.5208333,20.1666667 C13.1411376,20.1666667 12.8333333,19.8588624 12.8333333,19.4791667 C12.8333333,19.1311122 13.0919744,18.8434666 13.4275437,18.7979427 L13.5208333,18.7916667 L16.5,18.7916667 C17.7150264,18.7916667 18.7092021,17.8460921 18.7867921,16.6506777 L18.7916667,16.5 L18.7916667,13.5208333 C18.7916667,13.1411376 19.0994709,12.8333333 19.4791667,12.8333333 Z M2.52083333,12.8333333 C2.86888779,12.8333333 3.15653338,13.0919744 3.20205727,13.4275437 L3.20833333,13.5208333 L3.20833333,16.5 C3.20833333,17.7150264 4.15390794,18.7092021 5.34932229,18.7867921 L5.5,18.7916667 L8.47916667,18.7916667 C8.85886243,18.7916667 9.16666667,19.0994709 9.16666667,19.4791667 C9.16666667,19.8272211 8.90802561,20.1148667 8.57245634,20.1603906 L8.47916667,20.1666667 L5.5,20.1666667 C3.53632089,20.1666667 1.9331777,18.6230289 1.8378207,16.6830036 L1.83333333,16.5 L1.83333333,13.5208333 C1.83333333,13.1411376 2.14113757,12.8333333 2.52083333,12.8333333 Z M16.7291667,10.3125 C17.1088624,10.3125 17.4166667,10.6203042 17.4166667,11 C17.4166667,11.3796958 17.1088624,11.6875 16.7291667,11.6875 L5.27083333,11.6875 C4.89113757,11.6875 4.58333333,11.3796958 4.58333333,11 C4.58333333,10.6203042 4.89113757,10.3125 5.27083333,10.3125 L16.7291667,10.3125 Z M16.5,1.83333333 C18.4636791,1.83333333 20.0668223,3.3769711 20.1621793,5.31699635 L20.1666667,5.5 L20.1666667,8.47916667 C20.1666667,8.85886243 19.8588624,9.16666667 19.4791667,9.16666667 C19.1311122,9.16666667 18.8434666,8.90802561 18.7979427,8.57245634 L18.7916667,8.47916667 L18.7916667,5.5 C18.7916667,4.28497355 17.8460921,3.29079788 16.6506777,3.21320787 L16.5,3.20833333 L13.5208333,3.20833333 C13.1411376,3.20833333 12.8333333,2.9005291 12.8333333,2.52083333 C12.8333333,2.17277888 13.0919744,1.88513329 13.4275437,1.8396094 L13.5208333,1.83333333 L16.5,1.83333333 Z M8.47916667,1.83333333 C8.85886243,1.83333333 9.16666667,2.14113757 9.16666667,2.52083333 C9.16666667,2.86888779 8.90802561,3.15653338 8.57245634,3.20205727 L8.47916667,3.20833333 L5.5,3.20833333 C4.28497355,3.20833333 3.29079788,4.15390794 3.21320787,5.34932229 L3.20833333,5.5 L3.20833333,8.47916667 C3.20833333,8.85886243 2.9005291,9.16666667 2.52083333,9.16666667 C2.17277888,9.16666667 1.88513329,8.90802561 1.8396094,8.57245634 L1.83333333,8.47916667 L1.83333333,5.5 C1.83333333,3.53632089 3.3769711,1.9331777 5.31699635,1.8378207 L5.5,1.83333333 L8.47916667,1.83333333 Z" id="path-2"></path>
    </defs>
    <g id="页面-1" stroke="none" stroke-width="1" fill="none" fill-rule="evenodd">
        <g id="发现" transform="translate(-25.000000, -174.000000)">
            <g id="编组-4" transform="translate(12.000000, 156.000000)">
                <g id="Public/ic_public_scan" transform="translate(12.000000, 17.000000)" filter="url(#filter-1)">
                    <g>
                        <mask id="mask-3" fill="white">
                            <use xlink:href="#path-2"></use>
                        </mask>
                        <g id="形状结合" fill-rule="nonzero"></g>
                        <g id="编组" mask="url(#mask-3)" fill="#007DFF" fill-opacity="0.9">
                            <g id="Symbol/color-light/colorPrimary">
                                <rect id="color/#000000" x="0" y="0" width="22" height="22"></rect>
                            </g>
                        </g>
                    </g>
                </g>
            </g>
        </g>
    </g>
</svg>