<?xml version="1.0" encoding="UTF-8"?>
<svg width="18px" height="22px" viewBox="0 0 18 22" version="1.1" xmlns="http://www.w3.org/2000/svg" xmlns:xlink="http://www.w3.org/1999/xlink">
    <title>ic_near</title>
    <defs>
        <filter color-interpolation-filters="auto" id="filter-1">
            <feColorMatrix in="SourceGraphic" type="matrix" values="0 0 0 0 0.105882 0 0 0 0 0.835294 0 0 0 0 0.509804 0 0 0 1.000000 0"></feColorMatrix>
        </filter>
        <path d="M11,0.816240026 C15.6799965,0.816240026 19.4791667,4.54359252 19.4791667,9.14814635 C19.4791667,10.9413637 18.9359957,12.6935534 17.9278262,14.4644549 C17.3001642,15.5669755 16.5459661,16.6050046 15.5474582,17.7902515 L15.5474582,17.7902515 L15.3030652,18.0776458 L15.048929,18.3713436 C14.9625528,18.4703657 14.8744924,18.5705468 14.7846876,18.6719953 C14.5844402,18.8982057 14.3595853,19.135905 14.1100407,19.3852499 L14.1100407,19.3852499 L13.9182516,19.5744445 C13.7873043,19.7020333 13.6501795,19.8325433 13.5068668,19.9659941 L13.5068668,19.9659941 L13.2872556,20.1683783 C13.2498799,20.2024774 13.2121171,20.236761 13.173967,20.2712292 L13.173967,20.2712292 L12.9404188,20.4802579 C12.8610197,20.5506746 12.7800704,20.6218326 12.6975697,20.6937345 L12.6975697,20.6937345 L12.4454119,20.9116738 C11.645446,21.5975104 10.4692289,21.618815 9.63358735,20.9564556 L9.63358735,20.9564556 L9.56839926,20.9021196 L9.26507984,20.6375891 L9.07795078,20.4728538 L8.81273835,20.2369709 L8.5660092,20.0144421 L8.33765747,19.8051438 L8.12757728,19.6089523 L7.99762241,19.4853786 L7.87570981,19.3675385 L7.76180812,19.2553955 L7.65588595,19.1489129 L7.55791196,19.0480542 C7.54224357,19.031711 7.52690504,19.0156006 7.51189573,18.9997223 L7.51189573,18.9997223 L7.42578517,18.9072306 L7.21319597,18.6700154 L6.97833832,18.4036777 C6.93967201,18.3594594 6.90124435,18.3153257 6.86305587,18.2712747 L6.86305587,18.2712747 L6.63679901,18.0079485 L6.41630662,17.7465258 L6.41630662,17.7465258 L6.30822974,17.6165022 L6.09642992,17.3577784 L5.89045574,17.1007496 C3.69071271,14.3251517 2.52083333,11.8332778 2.52083333,9.14814635 C2.52083333,4.57730584 6.14891831,0.890581125 10.7556612,0.81728588 L10.7556612,0.81728588 L10.8899427,0.816240026 Z M11,2.1912183 L10.8954084,2.1912183 L10.7720671,2.1921771 C6.92160051,2.25345789 3.89583333,5.32812971 3.89583333,9.14814635 C3.89583333,11.8217999 5.31593095,14.4119317 8.00841612,17.4928378 L8.00841612,17.4928378 L8.23897567,17.7543772 L8.44472439,17.9840122 C8.45625336,17.9965985 8.46810817,18.009428 8.4802884,18.0225002 L8.4802884,18.0225002 L8.55727142,18.1038423 L8.64204421,18.1909864 L8.73458647,18.2839089 L8.88792324,18.4340761 L9.05862717,18.5971127 L9.24662976,18.7729396 L9.38154136,18.8972241 L9.59822285,19.0941919 L9.83202035,19.3037387 L10.0828654,19.525785 L10.4591378,19.8547809 L10.4994215,19.8884098 C10.8078076,20.1327674 11.2507501,20.1247444 11.5504598,19.8677937 L11.5504598,19.8677937 L11.7911033,19.6598268 L12.0224506,19.4565243 C12.0980162,19.3895359 12.1720311,19.3233274 12.244494,19.2579011 L12.244494,19.2579011 L12.4572258,19.0639718 L12.6606382,18.8747511 L12.8547237,18.6902536 L13.0394744,18.5104942 C13.3095956,18.2444159 13.5481863,17.9943779 13.7551294,17.7606036 L13.7551294,17.7606036 L13.8713764,17.6288064 L14.0990641,17.367729 C14.1364784,17.3244905 14.173626,17.2813874 14.2105071,17.2384171 L14.2105071,17.2384171 L14.4285972,16.9821675 L14.6403003,16.7289778 C14.7793088,16.5611765 14.9140654,16.3953306 15.0445823,16.2312711 L15.0445823,16.2312711 L15.2371794,15.9865004 C17.1629544,13.5111891 18.1041667,11.4316478 18.1041667,9.14814635 C18.1041667,5.30891955 14.9264165,2.1912183 11,2.1912183 L11,2.1912183 Z M11,7.10416667 C12.1390873,7.10416667 13.0625,8.02757937 13.0625,9.16666667 C13.0625,10.305754 12.1390873,11.2291667 11,11.2291667 C9.8609127,11.2291667 8.9375,10.305754 8.9375,9.16666667 C8.9375,8.02757937 9.8609127,7.10416667 11,7.10416667 Z" id="path-2"></path>
    </defs>
    <g id="页面-1" stroke="none" stroke-width="1" fill="none" fill-rule="evenodd">
        <g id="发现" transform="translate(-26.000000, -425.000000)">
            <g id="编组-4备份-5" transform="translate(12.000000, 408.000000)">
                <g id="List/single-line/48/with-right-element备份" transform="translate(12.000000, 16.000000)">
                    <g id="Public/ic_public_gps" transform="translate(0.000000, 1.000000)" filter="url(#filter-1)">
                        <g>
                            <mask id="mask-3" fill="white">
                                <use xlink:href="#path-2"></use>
                            </mask>
                            <g id="蒙版" fill-rule="nonzero"></g>
                            <g id="编组" mask="url(#mask-3)" fill="#1BD582" fill-opacity="0.9">
                                <g id="Symbol/color-light/colorPrimary">
                                    <rect id="color/#000000" x="0" y="0" width="22" height="22"></rect>
                                </g>
                            </g>
                        </g>
                    </g>
                </g>
            </g>
        </g>
    </g>
</svg>