<?xml version="1.0" encoding="UTF-8"?>
<svg width="20px" height="20px" viewBox="0 0 20 20" version="1.1" xmlns="http://www.w3.org/2000/svg" xmlns:xlink="http://www.w3.org/1999/xlink">
    <title>ic_shop</title>
    <defs>
        <filter color-interpolation-filters="auto" id="filter-1">
            <feColorMatrix in="SourceGraphic" type="matrix" values="0 0 0 0 0.878431 0 0 0 0 0.125490 0 0 0 0 0.125490 0 0 0 1.000000 0"></feColorMatrix>
        </filter>
        <path d="M16.5,1.83333333 C18.5250441,1.83333333 20.1666667,3.47495592 20.1666667,5.5 L20.1666667,16.5 C20.1666667,18.5250441 18.5250441,20.1666667 16.5,20.1666667 L5.5,20.1666667 C3.47495592,20.1666667 1.83333333,18.5250441 1.83333333,16.5 L1.83333333,5.5 C1.83333333,3.47495592 3.47495592,1.83333333 5.5,1.83333333 L16.5,1.83333333 Z M16.5,3.20833333 L5.5,3.20833333 C4.28497355,3.20833333 3.29079788,4.15390794 3.21320787,5.34932229 L3.20833333,5.5 L3.20833333,16.5 C3.20833333,17.7150264 4.15390794,18.7092021 5.34932229,18.7867921 L5.5,18.7916667 L16.5,18.7916667 C17.7150264,18.7916667 18.7092021,17.8460921 18.7867921,16.6506777 L18.7916667,16.5 L18.7916667,5.5 C18.7916667,4.28497355 17.8460921,3.29079788 16.6506777,3.21320787 L16.5,3.20833333 Z M15.125,5.5 C15.5046958,5.5 15.8125,5.80780423 15.8125,6.1875 C15.8125,8.84537036 13.6578704,11 11,11 C8.34212964,11 6.1875,8.84537036 6.1875,6.1875 C6.1875,5.80780423 6.49530423,5.5 6.875,5.5 C7.25469577,5.5 7.5625,5.80780423 7.5625,6.1875 C7.5625,8.08597883 9.10152117,9.625 11,9.625 C12.8984788,9.625 14.4375,8.08597883 14.4375,6.1875 C14.4375,5.80780423 14.7453042,5.5 15.125,5.5 Z" id="path-2"></path>
    </defs>
    <g id="页面-1" stroke="none" stroke-width="1" fill="none" fill-rule="evenodd">
        <g id="发现" transform="translate(-25.000000, -500.000000)">
            <g id="编组-4备份-2" transform="translate(8.000000, 482.000000)">
                <g id="List/single-line/48/with-right-element备份" transform="translate(16.000000, 4.000000)">
                    <g id="Public/ic_public_appstore" transform="translate(0.000000, 13.000000)" filter="url(#filter-1)">
                        <g>
                            <mask id="mask-3" fill="white">
                                <use xlink:href="#path-2"></use>
                            </mask>
                            <g id="形状结合" fill-rule="nonzero"></g>
                            <g id="编组" mask="url(#mask-3)" fill="#E02020" fill-opacity="0.9">
                                <g id="Symbol/color-light/colorPrimary">
                                    <rect id="color/#000000" x="0" y="0" width="22" height="22"></rect>
                                </g>
                            </g>
                        </g>
                    </g>
                </g>
            </g>
        </g>
    </g>
</svg>