<?xml version="1.0" encoding="UTF-8"?>
<svg width="22px" height="23px" viewBox="0 0 22 23" version="1.1" xmlns="http://www.w3.org/2000/svg" xmlns:xlink="http://www.w3.org/1999/xlink">
    <title>ic_shake</title>
    <g id="页面-1" stroke="none" stroke-width="1" fill="none" fill-rule="evenodd">
        <g id="发现" transform="translate(-24.000000, -221.000000)">
            <g id="编组-4" transform="translate(12.000000, 156.000000)">
                <g id="ic_shake" transform="translate(12.000000, 65.250000)">
                    <rect id="矩形" x="0" y="0" width="22" height="22"></rect>
                    <path d="M6.74176469,3.94035233 C7.04016714,2.60575898 8.33541993,1.73125074 9.6990034,1.94373079 L9.84424935,1.97079576 L16.1919679,3.34534462 C17.5410322,3.64124104 18.424013,4.92637479 18.2066697,6.27764085 L18.1801194,6.42147184 L15.6219166,17.7191638 C15.3252525,19.0551584 14.029177,19.9312388 12.6646779,19.7181052 L12.5202128,19.6902669 L6.17405607,18.3164914 C4.82427951,18.0212879 3.94023177,16.7360957 4.15701155,15.3841951 L4.18434277,15.2403642 L6.74176469,3.94035233 Z M5.70864432,15.5744232 C5.59463406,16.0940707 5.90386737,16.6152647 6.40441926,16.7776545 L6.50749703,16.8054927 L12.8536538,18.1800416 C13.3778919,18.2903157 13.9018908,17.9920432 14.0695029,17.4879516 L14.097615,17.385878 L14.2249005,16.5743505 L5.90771233,14.7799563 L5.70864432,15.5744232 Z M2.70681189,10.4534052 C2.67282961,10.6558928 2.55894278,10.8366929 2.39024525,10.955968 C2.23526414,11.0766279 2.09760284,11.2176309 1.98105775,11.3750884 C1.65308303,11.8042615 1.49768548,12.2829248 1.58748808,12.8219044 C1.66948176,13.3137136 1.92873797,13.6647849 2.3355828,13.9261552 C2.61358042,14.1040107 2.89782517,14.2060843 3.08836287,14.2478417 L3.16332852,14.2617608 C3.43896659,14.3045824 3.87132995,14.4953409 3.97169961,14.7531358 C4.07206927,15.0109306 4.02592973,15.3021679 3.85066132,15.5171412 C3.6753929,15.7321145 3.19689002,15.8325933 2.92125194,15.7897717 C2.40904254,15.700606 1.92078709,15.5082066 1.48675299,15.2245005 C0.731630247,14.7404241 0.20452802,14.0259089 0.0467877985,13.073222 C-0.119542237,12.0733646 0.16860698,11.184087 0.7363156,10.4417335 C0.946718025,10.1591534 1.1976936,9.90853866 1.48128675,9.6978335 C1.64972949,9.57825906 1.85926512,9.52989786 2.06373743,9.56340285 C2.26820975,9.59690784 2.45084489,9.70953044 2.57141224,9.8764623 C2.6920833,10.0433588 2.74079417,10.2509176 2.70681189,10.4534052 Z M8.29495925,4.17311108 L8.26606624,4.27518468 L6.17405607,13.3387029 L14.5669312,15.0648985 L16.6550369,6.08741277 C16.7668043,5.5693762 16.4675322,5.05091854 15.9600429,4.88340823 L15.8585269,4.85634326 L9.51158927,3.4817944 C8.98743028,3.37174671 8.46350255,3.66945429 8.29495925,4.17311108 Z M20.4599341,6.99498847 C21.2150569,7.53628788 21.7171706,8.30493304 21.8046305,9.30324381 C21.8905286,10.2791293 21.5578685,11.1235564 20.9675141,11.8125532 C20.7235919,12.1042048 20.4350747,12.3562528 20.1124371,12.5595464 C19.7585356,12.7728143 19.2980446,12.675289 19.0631928,12.3373317 C18.828341,11.9993744 18.9008764,11.5386225 19.2284672,11.2874928 L19.3034328,11.236456 C19.4815633,11.1183747 19.6412601,10.9750838 19.7774344,10.8111493 C20.1163416,10.4152275 20.294385,9.96208252 20.2483123,9.43624881 C20.2038015,8.92201437 19.9554778,8.54155821 19.5447285,8.24770996 C19.3353152,8.09615149 19.1028055,7.97867977 18.8559816,7.89973177 L18.7872631,7.88194622 C18.367417,7.78371932 18.1074765,7.36705387 18.2066697,6.95129787 C18.3058629,6.53554188 18.7266274,6.27813368 19.1464735,6.37636057 C19.620408,6.49696953 20.0663831,6.70701972 20.4599341,6.99498847 Z" id="形状" fill="#0091FF" fill-rule="nonzero"></path>
                </g>
            </g>
        </g>
    </g>
</svg>