<?xml version="1.0" encoding="UTF-8"?>
<svg width="22px" height="22px" viewBox="0 0 22 22" version="1.1" xmlns="http://www.w3.org/2000/svg" xmlns:xlink="http://www.w3.org/1999/xlink">
    <title>ic_game</title>
    <g id="页面-1" stroke="none" stroke-width="1" fill="none" fill-rule="evenodd">
        <g id="发现" transform="translate(-24.000000, -548.000000)">
            <g id="编组-4备份-2" transform="translate(8.000000, 482.000000)">
                <g id="编组-5" transform="translate(16.000000, 52.000000)">
                    <g id="ic_game" transform="translate(0.000000, 14.000000)">
                        <rect id="矩形" opacity="0.479855492" fill-rule="nonzero" x="0" y="0" width="22" height="22"></rect>
                        <path d="M12.5910655,3.03016195 C14.8140117,3.03016195 16.8265117,3.93118889 18.2832751,5.38795236 C19.7400386,6.84471584 20.6410656,8.85721585 20.6410656,11.080162 C20.6410656,13.3031081 19.7400386,15.3156081 18.2832751,16.7723715 C16.8265117,18.229135 14.8140117,19.130162 12.5910655,19.130162 L12.5910655,19.130162 L9.26761137,19.130162 C7.04466524,19.130162 5.03216523,18.229135 3.57540176,16.7723716 C2.11863828,15.3156081 1.21761133,13.3031081 1.21761133,11.080162 C1.21761133,8.85721585 2.11863827,6.84471584 3.57540175,5.38795236 C5.03216523,3.93118889 7.04466524,3.03016195 9.26761137,3.03016195 L9.26761137,3.03016195 Z" id="路径" stroke="#B620E0" stroke-width="1.5" style="mix-blend-mode: multiply;" fill-rule="nonzero"></path>
                        <path d="M16.2718279,11.397318 C15.816193,11.397318 15.4468279,11.7666831 15.4468279,12.222318 C15.4468279,12.6779529 15.816193,13.047318 16.2718279,13.047318 C16.7274629,13.047318 17.0968279,12.6779529 17.0968279,12.222318 C17.0968279,11.7666831 16.7274629,11.397318 16.2718279,11.397318 Z" id="路径" fill="#B620E0" fill-rule="nonzero" style="mix-blend-mode: multiply;"></path>
                        <path d="M13.6949714,11.397318 C13.2393365,11.397318 12.8699714,11.7666831 12.8699714,12.222318 C12.8699714,12.6779529 13.2393365,13.047318 13.6949714,13.047318 C14.1506064,13.047318 14.5199714,12.6779529 14.5199714,12.222318 C14.5199714,11.7666831 14.1506064,11.397318 13.6949714,11.397318 Z" id="路径" fill="#B620E0" fill-rule="nonzero" style="mix-blend-mode: multiply;"></path>
                        <path d="M13.6949714,8.88016195 C13.2393365,8.88016195 12.8699714,9.24952699 12.8699714,9.70516195 C12.8699714,10.1607968 13.2393365,10.530162 13.6949714,10.530162 C14.1506064,10.530162 14.5199714,10.1607968 14.5199714,9.70516195 C14.5199714,9.24952699 14.1506064,8.88016195 13.6949714,8.88016195 Z" id="路径" fill="#B620E0" fill-rule="nonzero" style="mix-blend-mode: multiply;"></path>
                        <path d="M16.2718279,8.88016195 C15.816193,8.88016195 15.4468279,9.24952699 15.4468279,9.70516195 C15.4468279,10.1607968 15.816193,10.530162 16.2718279,10.530162 C16.7274629,10.530162 17.0968279,10.1607968 17.0968279,9.70516195 C17.0968279,9.24952699 16.7274629,8.88016195 16.2718279,8.88016195 Z" id="路径" fill="#B620E0" fill-rule="nonzero" style="mix-blend-mode: multiply;"></path>
                        <rect id="矩形" fill="#B620E0" x="4.4" y="10.1004222" width="4.95" height="1.65" rx="0.825"></rect>
                        <path d="M5.225,10.1004222 L8.525,10.1004222 C8.98063492,10.1004222 9.35,10.4697872 9.35,10.9254222 C9.35,11.3810571 8.98063492,11.7504222 8.525,11.7504222 L5.225,11.7504222 C4.76936508,11.7504222 4.4,11.3810571 4.4,10.9254222 C4.4,10.4697872 4.76936508,10.1004222 5.225,10.1004222 Z" id="矩形" fill="#B620E0" transform="translate(6.875000, 10.925422) rotate(-270.000000) translate(-6.875000, -10.925422) "></path>
                        <path d="M9.6300932,1.45516195 L12.3800932,1.45516195 C12.8357281,1.45516195 13.2050932,1.82452703 13.2050932,2.28016195 C13.2050932,2.73579687 12.8357281,3.10516195 12.3800932,3.10516195 L9.6300932,3.10516195 C9.17445828,3.10516195 8.8050932,2.73579687 8.8050932,2.28016195 C8.8050932,1.82452703 9.17445828,1.45516195 9.6300932,1.45516195 Z" id="矩形备份-2" fill="#B620E0" transform="translate(11.005093, 2.280162) rotate(-270.000000) translate(-11.005093, -2.280162) "></path>
                    </g>
                </g>
            </g>
        </g>
    </g>
</svg>