<?xml version="1.0" encoding="UTF-8"?>
<svg width="21px" height="20px" viewBox="0 0 21 20" version="1.1" xmlns="http://www.w3.org/2000/svg" xmlns:xlink="http://www.w3.org/1999/xlink">
    <title>ic_addnew</title>
    <g id="页面-1" stroke="none" stroke-width="1" fill="none" fill-rule="evenodd" opacity="0.6">
        <g id="+菜单" transform="translate(-214.000000, -99.000000)">
            <g id="Menu/with-icon" transform="translate(196.000000, 82.000000)">
                <g id="编组-3" transform="translate(0.000000, 4.000000)">
                    <g id="ic_addnew" transform="translate(16.000000, 11.000000)">
                        <g id="symbol/frame/symbol_grid24"></g>
                        <path d="M12,2.25 C14.8994949,2.25 17.25,4.60050506 17.25,7.5 C17.25,10.3270076 15.0155511,12.6321316 12.2164046,12.745621 L12,12.75 L12,12.75 C7.581722,12.75 4,16.331722 4,20.75 C4,21.1642136 3.66421356,21.5 3.25,21.5 C2.83578644,21.5 2.5,21.1642136 2.5,20.75 C2.5,16.5781125 5.18916441,13.034313 8.92864014,11.7574546 C7.60862078,10.8043327 6.75,9.25243717 6.75,7.5 C6.75,4.60050506 9.10050506,2.25 12,2.25 Z M12,3.75 C9.92893219,3.75 8.25,5.42893219 8.25,7.5 C8.25,9.57106781 9.92893219,11.25 12,11.25 C14.0710678,11.25 15.75,9.57106781 15.75,7.5 C15.75,5.42893219 14.0710678,3.75 12,3.75 Z" id="形状结合" fill="#000000" fill-rule="nonzero"></path>
                        <path d="M18.5,20.75 C18.5,21.1642136 18.1642136,21.5 17.75,21.5 C17.3357864,21.5 17,21.1642136 17,20.75 L17,17.499 L13.75,17.5 C13.3357864,17.5 13,17.1642136 13,16.75 C13,16.3357864 13.3357864,16 13.75,16 L17,15.999 L17,12.75 C17,12.3357864 17.3357864,12 17.75,12 C18.1642136,12 18.5,12.3357864 18.5,12.75 L18.5,20.75 Z M19.5,16 L21.75,16 C22.1642136,16 22.5,16.3357864 22.5,16.75 C22.5,17.1642136 22.1642136,17.5 21.75,17.5 L19.5,17.5 L19.5,16 Z" id="形状结合" fill="#000000"></path>
                    </g>
                </g>
            </g>
        </g>
    </g>
</svg>