<?xml version="1.0" encoding="UTF-8"?>
<svg width="22px" height="22px" viewBox="0 0 22 22" version="1.1" xmlns="http://www.w3.org/2000/svg" xmlns:xlink="http://www.w3.org/1999/xlink">
    <title>ic_search</title>
    <g id="页面-1" stroke="none" stroke-width="1" fill="none" fill-rule="evenodd">
        <g id="发现" transform="translate(-24.000000, -289.000000)">
            <g id="编组-4备份" transform="translate(12.000000, 272.000000)">
                <g id="List/single-line/48/with-right-element备份" transform="translate(12.000000, 16.000000)">
                    <g id="ic_search" transform="translate(0.000000, 1.000000)">
                        <rect id="矩形" x="0" y="0" width="22" height="22"></rect>
                        <path d="M8.64867438,8.13523281 L8.56278705,8.10509058 C8.06499117,7.93310256 7.77227316,7.41359233 7.8809469,6.89230906 L8.81869621,2.37452055 C9.02727969,1.37273463 10.0439051,0.771663084 11.0079464,1.08195075 C12.0175606,1.40642301 12.4943229,2.57310466 12.0087966,3.52347146 L9.91069211,7.6228149 C9.67406379,8.0855868 9.13770626,8.30367469 8.64867438,8.13523281 Z M10.246386,9.04358162 C10.2253524,8.5045676 10.6092161,8.03647649 11.1368096,7.96023438 L19.3697226,6.750999 C20.3810896,6.60206093 21.3153332,7.3290206 21.432771,8.35562953 C21.5607256,9.46379979 20.6895828,10.4301243 19.5853173,10.4035282 L11.266517,10.1978518 C10.7178898,10.1854403 10.272678,9.74217215 10.2516444,9.1872005 L10.246386,9.04358162 Z M8.66798967,12.3865426 C8.34547402,11.9184515 8.45064217,11.2730532 8.90637082,10.9361694 L8.99751653,10.8687926 C9.42344752,10.5531858 10.0158947,10.6099241 10.376972,11 L17.0779356,18.2926468 C17.7948318,19.0727987 17.6931693,20.305084 16.8605882,20.9558016 C16.0507935,21.5870154 14.883427,21.406162 14.297991,20.5586334 L8.66798967,12.3865426 Z M2.82278174,17.458125 L5.97081487,10.9527223 C6.2127016,10.454489 6.79287921,10.2310818 7.30119192,10.4403044 C7.7832126,10.6388885 8.04438013,11.1672641 7.91467275,11.6779089 L6.13031989,18.6939565 C5.86214113,19.7489345 4.72983078,20.3198639 3.73423901,19.9014188 C2.79123132,19.5042506 2.37231154,18.3854419 2.82278174,17.458125 Z M6.37443947,9.7256916 L2.58137504,9.78597607 C1.62960333,9.80016064 0.886415115,8.9544051 1.01436969,8.00049216 C1.13881867,7.07140221 2.0345007,6.45791916 2.93368834,6.68487241 L6.6145734,7.61573543 C7.12113329,7.74339665 7.45591854,8.23099155 7.39632328,8.75582099 L7.39281768,8.79128244 C7.33497519,9.31788495 6.8985274,9.71859932 6.37443947,9.7256916 Z" id="形状" fill="#E02020" fill-rule="nonzero"></path>
                    </g>
                </g>
            </g>
        </g>
    </g>
</svg>