<?xml version="1.0" encoding="UTF-8"?>
<svg width="120px"
     height="120px"
     viewBox="0 0 120 120"
     version="1.1"
     xmlns="http://www.w3.org/2000/svg"
     xmlns:xlink="http://www.w3.org/1999/xlink">
    <title>pic_empty</title>
    <g
        id="pic_empty"
        stroke="none"
        stroke-width="1"
        fill="none"
        fill-rule="evenodd">
        <path
            d="M72.3173684,96.5151117 C73.8679813,96.5315497 78.2712138,97.1257855 80.2099313,90.7893826 C86.6692105,92.1757402 90.75,94.2175519 90.75,96.4940318 C90.75,100.675369 76.9827561,104.065013 60,104.065013 C43.0172439,104.065013 29.25,100.675369 29.25,96.4940318 L29.251,96.5143826 Z"
            id="shadow"
            fill="#A1A7B3"
            opacity="0.15"></path>
        <path
            d="M89.6271412,15.4449044 C94.6179581,15.4449044 98.1316055,19.7487672 98.1316055,24.5403259 C98.1316055,24.6405635 98.1299392,24.7404041 98.1266332,24.8398203 L98.1316055,33.8145473 L81.1226769,33.8145473 L81.1226769,24.8394944 C81.1243432,24.7404041 81.1226769,24.6405635 81.1226769,24.5403259 C81.1226769,19.7487672 84.6363243,15.4449044 89.6271412,15.4449044 Z"
            id="形状结合"
            fill="#A1A7B3"
            opacity="0.600000024"></path>
        <path
            d="M89.7539954,15.5965666 C86.3875404,15.5965666 84.1818218,17.3578378 83.0669397,18.9023864 C81.6573733,20.8551881 81.1690409,22.657016 81.1458589,24.3124383 C81.1304042,25.4160531 81.1304042,26.5065743 81.1458589,27.5840021 L81.1457914,51.4435917 C72.8733201,53.2314678 66.675,60.5912079 66.675,69.3986432 C66.675,78.1241555 72.7585481,85.4287791 80.9154921,87.3023616 C79.7096443,97.324571 74.1091093,96.5341058 72.3173684,96.5151117 L25.3333912,96.51478 L25.333034,96.4935666 L13.2834473,96.4940318 C12.2927246,96.4940318 9.13545494,94.2417589 7.33515704,90.6729662 C6.13495845,88.293771 5.55847855,84.7631315 5.60571734,80.0810477 L25.333034,80.0805666 L25.3333912,25.4940528 C25.3333912,20.4595761 27.7355585,17.1921939 32.5398933,15.6919061 L32.8566252,15.5965666 L89.7539954,15.5965666 Z"
            id="形状结合"
            fill="#A1A7B3"
            opacity="0.300000012"></path>
        <path
            d="M5.60571734,80.0810477 L62.729506,80.0810477 C62.3525731,85.7863224 63.0813003,89.8341336 64.9156877,92.2244812 C66.750075,94.6148288 69.4661267,96.0380124 73.0638428,96.4940318 C33.8707275,96.4940318 13.943929,96.4940318 13.2834473,96.4940318 C12.2927246,96.4940318 9.13545494,94.2417589 7.33515704,90.6729662 C6.13495845,88.293771 5.55847855,84.7631315 5.60571734,80.0810477 Z"
            id="矩形"
            fill="#A1A7B3"
            opacity="0.400000006"></path>
        <path
            d="M98.5302859,81.8697759 L102.097608,85.4372528 C103.043246,85.0544679 104.167164,85.2464706 104.933954,86.0132607 L114.175162,95.2544691 C115.198092,96.2773987 115.198092,97.9358952 114.175162,98.9588248 L113.922423,99.2115639 C112.899493,100.234493 111.240997,100.234493 110.218067,99.2115639 L100.976859,89.9703555 C100.210208,89.2037048 100.018136,88.0800567 100.400642,87.1345259 L96.7894064,83.5216377 C97.4050227,83.0092055 97.9866118,82.457289 98.5302859,81.8697759 Z"
            id="形状结合"
            fill="#A1A7B3"
            opacity="0.600000024"></path>
        <path
            d="M85.0446429,51.0267857 C95.1899165,51.0267857 103.414286,59.251155 103.414286,69.3964286 C103.414286,79.5417022 95.1899165,87.7660714 85.0446429,87.7660714 C74.8993692,87.7660714 66.675,79.5417022 66.675,69.3964286 C66.675,59.251155 74.8993692,51.0267857 85.0446429,51.0267857 Z M85.0446429,55.1089286 C77.1538745,55.1089286 70.7571429,61.5056602 70.7571429,69.3964286 C70.7571429,77.2871969 77.1538745,83.6839286 85.0446429,83.6839286 C92.9354112,83.6839286 99.3321429,77.2871969 99.3321429,69.3964286 C99.3321429,61.5056602 92.9354112,55.1089286 85.0446429,55.1089286 Z"
            id="形状结合"
            fill="#A1A7B3"
            opacity="0.5"></path>
        <circle
            id="椭圆形"
            fill="#A1A7B3"
            opacity="0.200000003"
            cx="85.0446429"
            cy="69.3964286"
            r="14.2875"></circle>
        <rect
            id="矩形"
            fill="#A1A7B3"
            opacity="0.200000003"
            transform="translate(93.714014, 70.183327) rotate(-255.000000) translate(-93.714014, -70.183327) "
            x="89.6318713"
            y="69.5029701"
            width="8.16428571"
            height="1.36071429"
            rx="0.680357143"></rect>
        <rect
            id="矩形备份"
            fill="#A1A7B3"
            opacity="0.200000003"
            transform="translate(91.672943, 65.420827) rotate(-255.000000) translate(-91.672943, -65.420827) "
            x="89.6318713"
            y="64.7404701"
            width="4.08214286"
            height="1.36071429"
            rx="0.680357143"></rect>
        <path
            d="M52.7160161,47.187668 C53.441911,46.9931651 54.188041,47.4239434 54.3825439,48.1498383 L56.2216997,55.0136613 C56.4162027,55.7395562 55.9854244,56.4856861 55.2595294,56.6801891 C54.5336345,56.8746921 53.7875046,56.4439138 53.5930016,55.7180188 L51.7538458,48.8541959 C51.5593428,48.1283009 51.9901211,47.382171 52.7160161,47.187668 Z M63.0592013,46.2642857 C63.8107031,46.2642857 64.4199156,46.8734983 64.4199156,47.625 L64.4199156,54.7309524 C64.4199156,55.4824541 63.8107031,56.0916667 63.0592013,56.0916667 C62.3076996,56.0916667 61.6984871,55.4824541 61.6984871,54.7309524 L61.6984871,47.625 C61.6984871,46.8734983 62.3076996,46.2642857 63.0592013,46.2642857 Z M72.6464342,47.187668 C73.3723292,47.382171 73.8031075,48.1283009 73.6086045,48.8541959 L71.7694487,55.7180188 C71.5749457,56.4439138 70.8288158,56.8746921 70.1029209,56.6801891 C69.3770259,56.4856861 68.9462476,55.7395562 69.1407506,55.0136613 L70.9799064,48.1498383 C71.1744093,47.4239434 71.9205393,46.9931651 72.6464342,47.187668 Z"
            id="形状结合"
            fill="#A1A7B3"
            opacity="0.300000012"
            transform="translate(62.681225, 51.495589) rotate(-53.000000) translate(-62.681225, -51.495589) "></path>
    </g>
</svg>