<svg xmlns="http://www.w3.org/2000/svg" xmlns:xlink="http://www.w3.org/1999/xlink" width="24" height="24" version="1.1" viewBox="0 0 24 24">
  <defs>
    <path id="uxs-a" d="M15.1429445,0 L15.6347824,0.0122564605 C16.5522256,0.0489266078 17.0882524,0.158222563 17.5305046,0.334428433 L17.7451478,0.428080731 L17.9521519,0.532725907 C18.6040038,0.881340093 19.1155809,1.39291724 19.4641951,2.04476909 L19.5688403,2.25177323 L19.6624926,2.46641643 C19.8386984,2.90866859 19.9479944,3.44469541 19.9846645,4.36213857 L19.996921,4.85397651 L19.996921,15.1429445 L19.9846645,15.6347824 C19.9479944,16.5522256 19.8386984,17.0882524 19.6624926,17.5305046 L19.5688403,17.7451478 L19.4641951,17.9521519 C19.1155809,18.6040038 18.6040038,19.1155809 17.9521519,19.4641951 L17.7451478,19.5688403 L17.5305046,19.6624926 C17.0882524,19.8386984 16.5522256,19.9479944 15.6347824,19.9846645 L15.1429445,19.996921 L4.85397651,19.996921 L4.36213857,19.9846645 C3.44469541,19.9479944 2.90866859,19.8386984 2.46641643,19.6624926 L2.25177323,19.5688403 L2.04476909,19.4641951 C1.39291724,19.1155809 0.881340093,18.6040038 0.532725907,17.9521519 L0.428080731,17.7451478 L0.334428433,17.5305046 C0.158222563,17.0882524 0.0489266078,16.5522256 0.0122564605,15.6347824 L0,15.1429445 L0,4.85397651 L0.0122564605,4.36213857 C0.0489266078,3.44469541 0.158222563,2.90866859 0.334428433,2.46641643 L0.428080731,2.25177323 L0.532725907,2.04476909 C0.881340093,1.39291724 1.39291724,0.881340093 2.04476909,0.532725907 L2.25177323,0.428080731 L2.46641643,0.334428433 C2.90866859,0.158222563 3.44469541,0.0489266078 4.36213857,0.0122564605 L4.85397651,0 L15.1429445,0 Z M15.1055765,1.49953447 L4.89134448,1.49953447 L4.42204564,1.5110597 L4.03311949,1.53295311 L4.03311949,1.53295311 L3.71145725,1.56426652 C3.4691049,1.59413422 3.28809249,1.6332451 3.14660345,1.68017592 L3.06627829,1.70926142 L2.92850098,1.76675155 L2.75216738,1.8554457 C2.41749669,2.03442955 2.15114598,2.27853928 1.96042242,2.5711983 L1.87139672,2.72149684 L1.80291372,2.85163509 L1.7278973,3.02161415 C1.62243987,3.28629759 1.5555223,3.62681396 1.52256639,4.18128219 L1.51179093,4.39950653 L1.5,4.85397651 L1.49953447,15.1055765 L1.5110597,15.5748754 L1.53295311,15.9638015 L1.53295311,15.9638015 L1.56426652,16.2854638 C1.59413422,16.5278161 1.6332451,16.7088285 1.68017592,16.8503176 L1.70926142,16.9306427 L1.76675155,17.06842 L1.8554457,17.2447536 C2.03442955,17.5794243 2.27853928,17.845775 2.5711983,18.0364986 L2.72149684,18.1255243 L2.85163509,18.1940073 L3.02161415,18.2690237 C3.28629759,18.3744811 3.62681396,18.4413987 4.18128219,18.4743546 L4.39950653,18.4851301 L4.86245834,18.496945 L14.8622083,18.4984845 L15.1055765,18.4973865 L15.5748754,18.4858613 L15.9638015,18.4639679 L15.9638015,18.4639679 L16.2854638,18.4326545 C16.5278161,18.4027868 16.7088285,18.3636759 16.8503176,18.3167451 L16.9306427,18.2876596 L17.06842,18.2301695 L17.2447536,18.1414753 C17.5794243,17.9624914 17.845775,17.7183817 18.0364986,17.4257227 L18.1255243,17.2754242 L18.1940073,17.1452859 L18.2690237,16.9753068 C18.3744811,16.7106234 18.4413987,16.370107 18.4743546,15.8156388 L18.4851301,15.5974145 L18.496945,15.1344627 L18.4984845,5.13471272 L18.4973865,4.89134448 L18.4858613,4.42204564 L18.4639679,4.03311949 L18.4639679,4.03311949 L18.4326545,3.71145725 C18.4027868,3.4691049 18.3636759,3.28809249 18.3167451,3.14660345 L18.2876596,3.06627829 L18.2301695,2.92850098 L18.1414753,2.75216738 C17.9624914,2.41749669 17.7183817,2.15114598 17.4257227,1.96042242 L17.2754242,1.87139672 L17.1452859,1.80291372 L16.9753068,1.7278973 C16.7106234,1.62243987 16.370107,1.5555223 15.8156388,1.52256639 L15.5974145,1.51179093 L15.1055765,1.49953447 Z M5.9984605,3.23267626 L11.5278723,8.71565811 L11.5278723,10.8155235 L7.4102252,6.73245191 L7.41074953,11.4039872 L7.41523348,11.7222465 L7.42494061,12.0524796 L7.4406423,12.3919732 L7.46310994,12.7380137 L7.51118494,13.2634144 L7.51118494,13.2634144 L7.55394222,13.613951 L7.60616527,13.9615375 C7.86362406,15.5149689 8.43203629,16.8963704 9.6277157,16.9930606 L9.76316639,16.9984605 L7.23116639,16.9984605 L7.14044924,16.8979414 L7.05374708,16.7898762 L6.93108337,16.6115148 L6.93108337,16.6115148 L6.85414153,16.4803549 L6.76329108,16.3009218 L6.76329108,16.3009218 L6.67824388,16.1025228 L6.6458222,16.0174299 L6.58367331,15.8367506 L6.55393028,15.7409225 L6.49706744,15.5376856 L6.44364943,15.3182017 L6.39361292,15.0815042 L6.34689454,14.8266263 L6.30343094,14.5526012 L6.26315879,14.2584622 L6.22601472,13.9432425 L6.19193539,13.6059753 L6.16085744,13.245694 L6.11972954,12.6600055 L6.0958779,12.2379591 L6.06529251,11.5550913 L6.04074754,10.8095655 L6.02202919,9.99811891 L6.00576549,8.80800718 L5.99897331,7.48716826 L5.9984605,3.23267626 Z M12.7657546,2.9984605 L12.8564494,3.09897963 L12.9431323,3.20704481 L13.0258665,3.32362282 L13.1427021,3.51656613 L13.1427021,3.51656613 L13.2335407,3.69599921 L13.2335407,3.69599921 L13.3185797,3.89439816 L13.382518,4.06804163 L13.4717522,4.35564652 L13.4717522,4.35564652 L13.526885,4.56688609 L13.5786061,4.79485593 L13.6269788,5.0405228 L13.6720661,5.30485346 L13.7139314,5.58881467 L13.7526378,5.89337318 L13.8049126,6.39094569 L13.8504353,6.94030017 L13.8771378,7.33691551 L13.9118809,7.97982395 L13.9404404,8.68321519 L13.9692697,9.72079396 L13.9879908,10.8794323 L13.9971091,12.1668644 L13.9984605,16.7642448 L8.46904873,11.2812629 L8.46904873,9.18139749 L12.5866958,13.2644691 L12.5861715,8.59270089 L12.5816875,8.27444433 L12.5719804,7.94421642 L12.5562787,7.60473035 L12.5338111,7.25869928 L12.5038061,6.90883641 L12.4857361,6.73331591 L12.4429788,6.38279254 L12.3907557,6.03522031 C12.1332969,4.48185514 11.5648847,3.10054384 10.3692053,3.00386008 L10.2337546,2.9984605 L12.7657546,2.9984605 Z"/>
  </defs>
  <g fill="none" fill-rule="evenodd" stroke="none" stroke-width="1" transform="translate(2.002 2.002)">
    <mask id="uxs-b" fill="#fff">
      <use xlink:href="#uxs-a"/>
    </mask>
    <g fill-opacity=".9" mask="url(#uxs-b)">
      <rect width="24" height="24" x="0" y="0" fill="#000" transform="translate(-2.002 -2.002)"/>
    </g>
  </g>
</svg>
