<?xml version="1.0" encoding="UTF-8"?>
<svg width="24px"
     height="24px"
     viewBox="0 0 24 24"
     version="1.1"
     xmlns="http://www.w3.org/2000/svg"
    >
    <title>画板</title>
    <defs>
        <filter id="filter-1">
            <feColorMatrix
                in="SourceGraphic"
                type="matrix"
                values="0 0 0 0 0.000000 0 0 0 0 0.000000 0 0 0 0 0.000000 0 0 0 1.000000 0"></feColorMatrix>
        </filter>
        <linearGradient
            x1="2.90003946%"
            y1="0%"
            x2="97.0999605%"
            y2="100%"
            id="linearGradient-2">
            <stop
                stop-color="#7ABAFD"
                offset="0%"></stop>
            <stop
                stop-color="#007DFF"
                offset="100%"></stop>
        </linearGradient>
    </defs>
    <g
        id="画板"
        stroke="none"
        stroke-width="1"
        fill="none"
        fill-rule="evenodd">
        <g
            filter="url(#filter-1)"
            id="ic_fingerprint">
            <g>
                <path
                    d="M5.10940055,15.781918 C5.10733729,18.252088 6.03105491,20.6333482 7.69833672,22.4559605 C7.93642582,22.773083 7.89310417,23.2194918 7.59848182,23.4849174 C7.30385947,23.7503429 6.85536585,23.7470109 6.5647197,23.4772371 C4.642627,21.3753667 3.57695695,18.6301278 3.57748546,15.781918 C3.57768778,15.7390565 3.58196232,15.6963112 3.59025161,15.6542584 C3.58221937,15.6121679 3.57794722,15.5694464 3.57748546,15.5265988 L3.57748546,13.994684 C3.57748546,13.5716573 3.92041648,13.2287265 4.3434431,13.2287265 C4.76646972,13.2287265 5.10940055,13.5716573 5.10940055,13.994684 L5.10940055,15.5265988 C5.10893898,15.5694464 5.10466683,15.6121679 5.09663459,15.6542584 C5.10492388,15.6963112 5.10919842,15.7390565 5.10940055,15.781918 Z M8.91365587,17.474684 C9.02445331,17.8821235 8.78463081,18.3023839 8.37748565,18.4142584 C8.31085424,18.4321809 8.24222623,18.4416172 8.17323033,18.4423435 C7.82899748,18.4421867 7.5271534,18.2124092 7.43535799,17.8806414 C7.24650684,17.1970834 7.15117107,16.4910834 7.15194896,15.781918 C7.15215587,15.7390565 7.1564304,15.6963112 7.1647197,15.6542584 C7.15668746,15.6121679 7.1524153,15.5694464 7.15194896,15.5265988 L7.15194896,9.41681161 C7.15194896,8.99378499 7.49488457,8.65085416 7.91791119,8.65085416 C8.3409378,8.65085416 8.68386863,8.99378499 8.68386863,9.41681161 L8.68386863,15.5265988 C8.68763511,15.5690687 8.68763511,15.6117886 8.68386863,15.6542584 C8.68789206,15.6967165 8.68789206,15.7394599 8.68386863,15.781918 C8.68320569,16.3539923 8.76051283,16.9234883 8.91365587,17.474684 L8.91365587,17.474684 Z M13.4072729,1.38957757 C13.0713797,1.14993628 12.9856764,0.687290159 13.213442,0.343233421 C13.4412075,-0.000823316262 13.9005787,-0.102630172 14.2523793,0.112981824 C16.2732128,1.45366166 17.8218514,3.39526496 18.6796133,5.66362012 C18.8091623,6.05493234 18.6058014,6.47859382 18.2194532,6.62227136 C17.833105,6.7659489 17.4023362,6.57811143 17.2447197,6.19723714 C16.4992481,4.23313334 15.1572743,2.55187137 13.4072729,1.38957757 L13.4072729,1.38957757 Z M22.981741,9.35298182 C22.9831423,9.37423535 22.9831423,9.39555809 22.981741,9.41681161 L22.981741,15.5265988 C22.9855075,15.5690687 22.9855075,15.6117886 22.981741,15.6542584 C22.9857644,15.6967165 22.9857644,15.7394599 22.981741,15.781918 C22.9740864,19.2100408 20.7603895,22.2435526 17.4979773,23.2965251 C14.235565,24.3494976 10.6661304,23.1825427 8.65578353,20.4057478 C8.40928405,20.0635706 8.48575119,19.5865069 8.82684736,19.3385137 C8.99138489,19.2193077 9.19654384,19.1703599 9.39717641,19.2024419 C9.59780898,19.234524 9.77747424,19.3450069 9.89663459,19.5095776 C11.5177478,21.7487465 14.3960058,22.6898906 17.0268506,21.8410434 C19.6576953,20.9921963 21.4431202,18.5463059 21.4498261,15.781918 C21.4458027,15.7394599 21.4458027,15.6967165 21.4498261,15.6542584 C21.4460596,15.6117886 21.4460596,15.5690687 21.4498261,15.5265988 L21.4498261,9.67213076 C21.4585582,6.67853167 20.4593793,3.76913129 18.6132303,1.41255629 C18.375765,1.07769511 18.444514,0.615160507 18.7691065,0.363841004 C19.093699,0.112521501 19.5587129,0.161784009 19.8234431,0.475535015 C21.8136873,3.01243837 22.9224896,6.12909599 22.981741,9.35298182 Z M19.4072729,9.41681161 L19.4072729,15.5265988 C19.4110394,15.5690687 19.4110394,15.6117886 19.4072729,15.6542584 C19.4112963,15.6967165 19.4112963,15.7394599 19.4072729,15.781918 C19.4072729,18.1790688 17.4639982,20.1223435 15.0668474,20.1223435 C12.6696965,20.1223435 10.7264218,18.1790688 10.7264218,15.781918 C10.7223984,15.7394599 10.7223984,15.6967165 10.7264218,15.6542584 C10.7226553,15.6117886 10.7226553,15.5690687 10.7264218,15.5265988 L10.7264218,9.67213076 C10.7264218,8.12103316 9.46900878,6.86362012 7.91791119,6.86362012 C6.36681359,6.86362012 5.10940055,8.12103316 5.10940055,9.67213076 L5.10940055,11.4593648 C5.10940055,11.8823914 4.76646972,12.2253222 4.3434431,12.2253222 C3.92041648,12.2253222 3.57748084,11.8823914 3.57748084,11.4593648 L3.57748084,9.41681161 C3.5772598,9.35816649 3.58498984,9.29976172 3.60046438,9.24319459 C3.82905609,7.03051287 5.69345292,5.34880365 7.91791119,5.34880365 C10.1423694,5.34880365 12.0067663,7.03051287 12.235358,9.24319459 C12.2508325,9.29976172 12.2585626,9.35816649 12.2583367,9.41681161 L12.2583367,15.5265988 C12.2621032,15.5690687 12.2621032,15.6117886 12.2583367,15.6542584 C12.2623601,15.6967165 12.2623601,15.7394599 12.2583367,15.781918 C12.2583367,17.3330156 13.5157498,18.5904286 15.0668474,18.5904286 C16.617945,18.5904286 17.875358,17.3330156 17.875358,15.781918 C17.8713346,15.7394599 17.8713346,15.6967165 17.875358,15.6542584 C17.8715915,15.6117886 17.8715915,15.5690687 17.875358,15.5265988 L17.875358,9.67213076 C17.8742637,9.27102381 17.84954,8.87032967 17.8013154,8.47213076 C17.7512573,8.04910415 18.053608,7.66559318 18.4766346,7.61553503 C18.8996612,7.56547689 19.2831722,7.86782756 19.3332303,8.29085416 C19.3740814,8.63298182 19.3945069,8.9700031 19.4072729,9.31213076 C19.4093663,9.34699298 19.4093663,9.38194939 19.4072729,9.41681161 Z M1.53493246,9.67213076 L1.53493246,15.5265988 C1.5344709,15.5694464 1.53019874,15.6121679 1.5221665,15.6542584 C1.5304558,15.6963112 1.53473033,15.7390565 1.53493246,15.781918 C1.53174927,17.7576687 1.9677978,19.709422 2.81152821,21.4959605 C2.89863424,21.6800829 2.90881637,21.8913171 2.83982353,22.0829639 C2.7708307,22.2746106 2.62834559,22.4308847 2.44386863,22.5172371 C2.34153061,22.5648557 2.22993307,22.5892676 2.11706012,22.5887353 C1.82092123,22.5884079 1.55149772,22.4174085 1.42514523,22.1495776 C0.484405839,20.1588702 -0.0013858254,17.9837097 0.00301756809,15.781918 C-0.00100585603,15.7394599 -0.00100585603,15.6967165 0.00301756809,15.6542584 C-0.000748910388,15.6117886 -0.000748910388,15.5690687 0.00301756809,15.5265988 L0.00301756809,9.41681161 C0.00301756809,9.3887265 0.00301756809,9.3606414 0.00301756809,9.3300031 C0.00301756809,4.95872806 3.54663614,1.41510948 7.91791119,1.41510948 C12.2891862,1.41510948 15.8328048,4.95872806 15.8328048,9.3300031 C15.8328048,9.3606414 15.8328048,9.3887265 15.8328048,9.41681161 L15.8328048,15.5265988 C15.8328048,15.9496255 15.489874,16.2925563 15.0668474,16.2925563 C14.6438207,16.2925563 14.3008899,15.9496255 14.3008899,15.5265988 L14.3008899,9.67213076 C14.3008899,6.14690895 11.443133,3.28915204 7.91791119,3.28915204 C4.39268938,3.28915204 1.53493246,6.14690895 1.53493246,9.67213076 Z"
                    id="形状"
                    fill="url(#linearGradient-2)"
                    fill-rule="nonzero"></path>
            </g>
        </g>
    </g>
</svg>