<svg xmlns="http://www.w3.org/2000/svg"
     width="58"
     height="58"
     version="1.1"
     viewBox="0 0 58 58">
    <defs>
        <filter id="uxs-a">
            <feColorMatrix
                in="SourceGraphic"
                type="matrix"
                values="0 0 0 0 0.000000 0 0 0 0 0.000000 0 0 0 0 0.000000 0 0 0 1.000000 0"/>
        </filter>
    </defs>
    <g
        fill="none"
        fill-rule="evenodd"
        stroke="none"
        stroke-width="1"
        filter="url(#uxs-a)">
        <circle
            cx="29"
            cy="29"
            r="28.25"
            stroke="#FFF"
            stroke-opacity=".5"
            stroke-width="1.5"/>
        <path
            fill="#FFF"
            d="M38.68225,13.56925 C38.986,13.2875 39.46025,13.30525 39.74225,13.60875 C42.9715,17.088 44.75,21.6165 44.75,26.36025 C44.75,26.3625 44.7495,26.3645 44.7495,26.3665 L44.74975,26.3695312 L44.75,26.37275 L44.75,32.37275 C44.75,32.37425 44.7495,32.3755 44.7495,32.37675 C44.74025,39.39925 39.0245,45.11 32,45.11 C24.9755,45.11 19.25975,39.39925 19.2505,32.37675 L19.2505,32.37675 L19.25,30.873 C19.25,30.45875 19.58575,30.123 20,30.123 C20.41425,30.123 20.75,30.45875 20.75,30.873 L20.75,30.873 L20.75,32.36 C20.75,38.5635 25.79675,43.61 32,43.61 C38.20325,43.61 43.25,38.5635 43.25,32.36 L43.25,32.36 L43.25,26.36025 C43.25,21.9965 41.61375,17.83025 38.6425,14.62925 C38.36075,14.3255 38.37875,13.85125 38.68225,13.56925 Z M18.558775,39.0567 C18.920025,38.8537 19.377025,38.9812 19.580525,39.3417 C20.527775,41.02145 21.779775,42.4687 23.301525,43.6432 C23.629525,43.89645 23.690025,44.3672 23.437025,44.6952 C23.289275,44.8867 23.067275,44.98695 22.842775,44.98695 C22.682525,44.98695 22.521525,44.93595 22.385025,44.8307 C20.703525,43.5327 19.320525,41.93395 18.274025,40.07845 C18.070525,39.7177 18.198025,39.26045 18.558775,39.0567 Z M26,13.61 C33.03025,13.61 38.75,19.32975 38.75,26.36 C38.75,26.36225 38.7495,26.36425 38.7495,26.36625 L38.74975,26.3695 L38.75,26.37275 L38.75,32.37275 C38.75,32.37425 38.7495,32.3755 38.7495,32.37675 C38.7405,36.09125 35.71625,39.11025 32,39.11025 C31.6105,39.11025 31.21225,39.0745 30.81575,39.0045 C30.40775,38.9325 30.1355,38.54325 30.20775,38.1355 C30.28,37.72725 30.67025,37.45475 31.077,37.5275 C31.3875,37.5825 31.698,37.61025 32,37.61025 C34.89475,37.61025 37.25,35.255 37.25,32.36025 L37.25,32.36025 L37.25,26.36 C37.25,20.15675 32.20325,15.11 26,15.11 C19.79675,15.11 14.75,20.15675 14.75,26.36 C14.75,26.36225 14.7495,26.36425 14.7495,26.36625 L14.74975,26.3695 L14.75,26.37275 L14.75,32.36025 C14.75,35.5395 15.62275,38.647 17.2745,41.347 C17.4905,41.70025 17.37925,42.162 17.026,42.37825 C16.90375,42.453 16.7685,42.4885 16.63525,42.4885 C16.3825,42.4885 16.13625,42.361 15.99475,42.12975 C14.20175,39.19825 13.253,35.8255 13.25,32.3755 L13.25,32.3755 L13.25,26.36 C13.25,19.32975 18.96975,13.61 26,13.61 Z M32.29575,19.8885 C32.60775,19.617 33.08125,19.649 33.35375,19.96175 C34.899,21.7365 35.75,24.00875 35.75,26.36025 C35.75,26.3625 35.7495,26.3645 35.7495,26.3665 L35.74975,26.3695312 L35.75,26.37275 L35.75,32.37275 C35.75,32.377 35.74875,32.38125 35.7485,32.38575 C35.73475,34.4415 34.059,36.11 32,36.11 C29.941,36.11 28.26525,34.4415 28.2515,32.38575 C28.25125,32.38125 28.25,32.377 28.25,32.37275 L28.25,26.36 C28.25,25.11925 27.24075,24.11 26,24.11 C24.75925,24.11 23.75,25.11925 23.75,26.36 C23.75,26.36225 23.7495,26.36425 23.7495,26.36625 L23.74975,26.3695 L23.75,26.37275 L23.75,32.36025 C23.75,36.90925 27.451,40.61025 32,40.61025 C32.7895,40.61025 33.5755,40.49675 34.33575,40.2725 C34.73275,40.15625 35.15025,40.383 35.267,40.78025 C35.384,41.1775 35.157,41.5945 34.7595,41.7115 C33.8615,41.976 32.933,42.11025 32,42.11025 C26.6295,42.11025 22.2595,37.7455 22.2505,32.37675 L22.2505,32.37675 L22.25,26.36 C22.25,24.29225 23.93225,22.61 26,22.61 C28.06775,22.61 29.75,24.29225 29.75,26.36 C29.75,26.36225 29.7495,26.36425 29.7495,26.36625 L29.74975,26.3695 L29.75,26.37275 L29.75,32.36 C29.75,33.60075 30.75925,34.61 32,34.61 C33.24075,34.61 34.25,33.60075 34.25,32.36 L34.25,32.36 L34.25,26.36025 C34.25,24.371 33.53,22.4485 32.2225,20.94675 C31.9505,20.6345 31.98325,20.1605 32.29575,19.8885 Z M40.5344,22.57365 C40.94065,22.4884 41.33715,22.7504 41.4209,23.1559 C41.6394,24.2104 41.7499,25.2884 41.7499,26.36015 L41.7499,26.36015 L41.7494,32.37815 C41.74365,35.5299 40.20215,38.4989 37.6224,40.32365 C37.49065,40.41665 37.33965,40.4614 37.1899,40.4614 C36.95465,40.4614 36.72315,40.3509 36.5769,40.1444 C36.33765,39.8064 36.4179,39.33815 36.75615,39.0989 C38.9439,37.55165 40.2499,35.03265 40.2499,32.36015 L40.2499,32.36015 L40.2499,26.37265 C40.2499,26.3704 40.2504,26.36865 40.2504,26.36665 L40.25015,26.3634 C40.2499,25.3904 40.14965,24.41465 39.95215,23.46015 C39.86815,23.05465 40.1289,22.65765 40.5344,22.57365 Z M26,25.6227 C26.41425,25.6227 26.75,25.95845 26.75,26.3727 L26.75,26.3727 L26.75,32.3602 C26.75,33.96095 27.468,35.4542 28.72,36.45795 C29.04325,36.71695 29.09525,37.1892 28.83625,37.5122 C28.688,37.69695 28.47025,37.7932 28.2505,37.7932 C28.086,37.7932 27.9205,37.7392 27.782,37.6282 C26.17725,36.3422 25.2555,34.4292 25.2505,32.3777 L25.2505,32.3777 L25.25,26.3727 C25.25,25.95845 25.58575,25.6227 26,25.6227 Z M25.9999,16.610175 C27.7069,16.610175 29.3889,17.060175 30.8644,17.911675 C31.2234,18.118675 31.3464,18.577425 31.1394,18.936175 C30.9324,19.294925 30.47365,19.418425 30.1149,19.211175 C28.8669,18.490925 27.4439,18.110175 25.9999,18.110175 C21.4509,18.110175 17.7499,21.811175 17.7499,26.360175 L17.7499,26.360175 L17.7499,32.360175 C17.7499,33.844675 17.98265,35.317425 18.44115,36.737675 C18.56865,37.131675 18.3524,37.554675 17.9579,37.681675 C17.8814,37.706675 17.80365,37.718425 17.7274,37.718425 C17.41065,37.718425 17.1164,37.516175 17.0139,37.198675 C16.5089,35.634175 16.2519,34.011675 16.25015,32.375675 C16.25015,32.374675 16.2499,32.373675 16.2499,32.372675 L16.2499,32.372675 L16.2499,26.372675 C16.2499,26.370425 16.2504,26.368425 16.2504,26.366675 L16.25015,26.363425 C16.2499,20.983925 20.62365,16.610175 25.9999,16.610175 Z M26,19.61 C29.722,19.61 32.75,22.638 32.75,26.36 C32.75,26.36225 32.7495,26.36425 32.7495,26.36625 L32.74975,26.3695 L32.75,26.37275 L32.75,32.37275 C32.75,32.787 32.41425,33.12275 32,33.12275 C31.58575,33.12275 31.25,32.787 31.25,32.37275 L31.25,32.37275 L31.25,26.36 C31.25,23.46525 28.89475,21.11 26,21.11 C23.10525,21.11 20.75,23.46525 20.75,26.36 C20.75,26.36225 20.7495,26.36425 20.7495,26.36625 L20.74975,26.3695 L20.75,26.37275 L20.75,27.873 C20.75,28.28725 20.41425,28.623 20,28.623 C19.58575,28.623 19.25,28.28725 19.25,27.873 L19.25,27.873 L19.25,26.36 C19.25,22.638 22.278,19.61 26,19.61 Z M31.626225,12.4348 C31.800475,12.0588 32.246725,11.89505 32.621975,12.0703 C36.151725,13.7083 38.940975,16.57805 40.475975,20.15055 C40.639725,20.53105 40.463975,20.97205 40.083225,21.13555 C39.986725,21.17705 39.886225,21.1968 39.787475,21.1968 C39.496725,21.1968 39.220225,21.0268 39.098225,20.7428 C37.708725,17.51005 35.184475,14.9133 31.990725,13.43055 C31.614975,13.2563 31.451725,12.8103 31.626225,12.4348 Z"/>
    </g>
</svg>
