<svg id="图层_5"
     data-name="图层 5"
     xmlns="http://www.w3.org/2000/svg"
     viewBox="0 0 240 240">
    <defs>
        <style>.cls-1{fill:#fff;}</style>
    </defs>
    <title>error</title>
    <g
        id="人脸图标_圆环"
        data-name="人脸图标 圆环">
        <path
            id="形状结合"
            class="cls-1"
            d="M120,8.49a112,112,0,1,1-112,112A112,112,0,0,1,120,8.49Zm0,10a102,102,0,1,0,102,102A102,102,0,0,0,120,18.49Z"/>
    </g>
    <g
        id="人脸图标_眼睛"
        data-name="人脸图标 眼睛">
        <g id="Group-Copy-13">
            <path
                id="形状结合-2"
                data-name="形状结合"
                class="cls-1"
                d="M78.5,79.5A9.5,9.5,0,1,1,69,89,9.5,9.5,0,0,1,78.5,79.5Zm84,0A9.5,9.5,0,1,1,153,89,9.5,9.5,0,0,1,162.5,79.5Z"/>
        </g>
    </g>
    <g
        id="人脸图标_嘴巴"
        data-name="人脸图标 嘴巴">
        <g
            id="Group-Copy-13-2"
            data-name="Group-Copy-13">
            <path
                id="形状结合-3"
                data-name="形状结合"
                class="cls-1"
                d="M75.52,157.69a5,5,0,0,1,6.87,1.67,44,44,0,0,0,75,.35,5,5,0,0,1,8.49,5.28,54,54,0,0,1-92-.43A5,5,0,0,1,75.52,157.69Z"/>
        </g>
    </g>
    <g
        id="人脸图标_鼻子"
        data-name="人脸图标 鼻子">
        <g
            id="Group-Copy-13-3"
            data-name="Group-Copy-13">
            <path
                id="形状结合-4"
                data-name="形状结合"
                class="cls-1"
                d="M118.05,96.27a5,5,0,0,1,9.74,2.24l-0.05.22-8.32,32.77H129a5,5,0,0,1,5,4.78v0.22a5,5,0,0,1-4.78,5H113a5,5,0,0,1-4.89-6l0-.2Z"/>
        </g>
    </g>
</svg>