<svg id="图层_1"
     data-name="图层 1"
     xmlns="http://www.w3.org/2000/svg"
     viewBox="0 0 240 240">
    <defs>
        <style>.cls-1{fill:#000000;}.cls-2{fill:#000000;}</style>
    </defs>
    <title>right</title>
    <g
        id="人脸图标_圆环"
        data-name="人脸图标 圆环">
        <path
            id="形状结合"
            class="cls-1"
            d="M120,8A112,112,0,1,1,8,120,112,112,0,0,1,120,8Zm0,10A102,102,0,1,0,222,120,102,102,0,0,0,120,18Z"/>
    </g>
    <g
        id="人脸图标_圆环-2"
        data-name="人脸图标 圆环">
        <path
            id="形状结合-2"
            data-name="形状结合"
            class="cls-2"
            d="M120,8A112,112,0,1,1,8,120,112,112,0,0,1,120,8Zm0,10A102,102,0,1,0,222,120,102,102,0,0,0,120,18Z"/>
    </g>
    <path
        id="Combined-Shape"
        class="cls-2"
        d="M70,115.94a6.21,6.21,0,0,1,8.78,0l33.65,33.65,57.06-57.06a6.21,6.21,0,0,1,8.78,8.78l-61.45,61.45h0a6.21,6.21,0,0,1-8.78,0l-38-38A6.21,6.21,0,0,1,70,115.94Z"/>
</svg>