<?xml version="1.0" encoding="UTF-8"?>
<svg width="24px" height="24px" viewBox="0 0 24 24" version="1.1" xmlns="http://www.w3.org/2000/svg" xmlns:xlink="http://www.w3.org/1999/xlink">
    <title>垃圾桶桶身</title>
    <g id="垃圾桶桶身" stroke="none" stroke-width="1" fill="none" fill-rule="evenodd">
        <path d="M19.905,7 L18.7182288,19.0681369 C18.5606486,20.6702027 17.2574873,21.9055183 15.668412,21.9948255 L15.4838372,22 L8.51616277,22 C6.90636576,22 5.54941872,20.8240202 5.30498855,19.2513187 L5.28177119,19.0681369 L4.095,7 L19.905,7 Z M10,11.75 C9.58578644,11.75 9.25,12.0857864 9.25,12.5 L9.25,12.5 L9.25,18.5 C9.25,18.9142136 9.58578644,19.25 10,19.25 C10.4142136,19.25 10.75,18.9142136 10.75,18.5 L10.75,18.5 L10.75,12.5 C10.75,12.0857864 10.4142136,11.75 10,11.75 Z M14,11.75 C13.5857864,11.75 13.25,12.0857864 13.25,12.5 L13.25,12.5 L13.25,18.5 C13.25,18.9142136 13.5857864,19.25 14,19.25 C14.4142136,19.25 14.75,18.9142136 14.75,18.5 L14.75,18.5 L14.75,12.5 C14.75,12.0857864 14.4142136,11.75 14,11.75 Z" id="形状结合" fill="#000000" fill-rule="nonzero"></path>
    </g>
</svg>