<svg width="48" height="48" viewBox="0 0 48 48" fill="none" xmlns="http://www.w3.org/2000/svg">
<g id="public/ic_public_confirm">
<path id="&#229;&#189;&#162;&#231;&#138;&#182;&#231;&#187;&#147;&#229;&#144;&#136;" d="M44.4341 13.4965C44.9587 12.9075 44.9385 12.0042 44.3736 11.4393C43.7878 10.8536 42.8381 10.8536 42.2523 11.4393L30.7534 22.9382L21.5599 32.1317L21.4958 32.1922C20.9068 32.7168 20.0035 32.6966 19.4386 32.1317L8.74621 21.4393L8.68208 21.3788C8.09304 20.8543 7.18975 20.8745 6.62489 21.4393C6.0391 22.0251 6.0391 22.9749 6.62489 23.5607L8.1234 25.0592L8.12489 25.0607L18.0244 34.9602L18.1109 35.0438C19.4832 36.3264 21.6358 36.2985 22.9741 34.9602L23.6808 34.2535L44.3736 13.5607L44.4341 13.4965Z" fill="white"/>
</g>
</svg>
