<?xml version="1.0" encoding="UTF-8"?>
<svg width="47.25px" height="45px" viewBox="0 0 63 60" version="1.1" xmlns="http://www.w3.org/2000/svg" xmlns:xlink="http://www.w3.org/1999/xlink">
    <title>ic_statusbar_wifi3</title>
    <g id="ic_statusbar_wifi3" stroke="none" stroke-width="1" fill="none" fill-rule="evenodd">
        <g id="wifi">
            <path d="M36,47.5 C36,49.985 33.985,52 31.5,52 C29.015,52 27,49.985 27,47.5 C27,45.015 29.015,43 31.5,43 C33.985,43 36,45.015 36,47.5" id="形状结合" fill="#000000"></path>
            <g id="编组" opacity="0.2" transform="translate(6.000000, 8.000000)" fill="#000000">
                <path d="M0.791251986,9.097 C0.879251986,9.211 0.954251986,9.347 1.02225199,9.492 C1.09925199,9.564 1.17425199,9.639 1.23525199,9.729 C1.27025199,9.78 1.31025199,9.827 1.34525199,9.877 C1.49925199,10.029 1.64325199,10.195 1.75925199,10.388 C1.79125199,10.441 1.82325199,10.494 1.85525199,10.547 C2.74625199,11.635 3.79225199,12.59 4.73325199,13.635 C10.586252,8.713 17.958252,6 25.633252,6 C33.223252,6 40.524252,8.641 46.346252,13.459 C47.765252,12.038 50.3871485,9.02533091 50.2799545,8.93593216 C43.3639323,3.16803392 34.6731395,-4.4408921e-15 25.633252,-4.4408921e-15 C16.508252,-4.4408921e-15 7.73825199,3.226 0.791251986,9.097 Z" id="Fill-5"></path>
                <path d="M5.00725199,8.9692 C6.23825199,10.0782 6.33825199,11.9752 5.22925199,13.2062 C4.12025199,14.4372 2.22425199,14.5372 0.992251986,13.4282 C-0.238748014,12.3192 -0.337748014,10.4222 0.770251986,9.1912 C1.87925199,7.9602 3.77625199,7.8602 5.00725199,8.9692" id="Fill-7"></path>
                <path d="M50.275152,8.9761 C49.044152,7.8671 47.147152,7.9671 46.038152,9.1981 C44.930152,10.4291 45.029152,12.3261 46.260152,13.4351 C47.492152,14.5441 49.389152,14.4441 50.497152,13.2131 C51.606152,11.9821 51.506152,10.0851 50.275152,8.9761" id="Fill-17"></path>
            </g>
            <g id="编组-2" transform="translate(21.000000, 32.000000)" fill="#000000">
                <path d="M10.770752,-2.66453526e-15 C7.14775199,-2.66453526e-15 3.65575199,1.189 0.794751986,3.365 C0.924751986,3.505 1.04575199,3.655 1.14675199,3.824 C1.24375199,3.986 1.34275199,4.146 1.43975199,4.308 C1.64275199,4.487 1.82075199,4.703 1.95975199,4.949 C2.61675199,6.112 3.73075199,7.026 4.82875199,7.856 C6.56975199,6.656 8.63275199,6 10.770752,6 C12.896752,6 14.948752,6.65 16.684752,7.836 C17.854752,6.192 19.111752,4.599 20.637752,3.275 C17.796752,1.154 14.346752,-2.66453526e-15 10.770752,-2.66453526e-15" id="Fill-1"></path>
                <path d="M5.00725199,3.2374 C6.23825199,4.3464 6.33825199,6.2434 5.22925199,7.4744 C4.12025199,8.7054 2.22325199,8.8054 0.992251986,7.6964 C-0.238748014,6.5874 -0.337748014,4.6904 0.770251986,3.4594 C1.87925199,2.2284 3.77625199,2.1284 5.00725199,3.2374" id="Fill-11"></path>
                <path d="M20.597052,3.2374 C21.828052,4.3464 21.928052,6.2434 20.819052,7.4744 C19.710052,8.7054 17.814052,8.8054 16.582052,7.6964 C15.351052,6.5874 15.252052,4.6904 16.360052,3.4594 C17.469052,2.2284 19.366052,2.1284 20.597052,3.2374" id="Fill-15"></path>
            </g>
            <g id="编组-3" transform="translate(13.000000, 20.000000)" fill="#000000">
                <path d="M32.204952,11.039 C32.826952,10.247 33.557952,9.548 34.141952,8.726 C34.225952,8.609 34.320952,8.505 34.422952,8.414 C34.861952,7.646 35.258952,6.896 35.746952,6.201 C30.847952,2.207 24.746952,-4.61852778e-14 18.393952,-4.61852778e-14 C12.005952,-4.61852778e-14 5.85895199,2.209 0.945951986,6.243 C2.10095199,7.894 4.60391155,11.0282104 4.69114362,10.9559131 C8.54334417,7.76323964 13.3677686,6 18.393952,6 C23.464952,6 28.327952,7.803 32.196952,11.052 C32.199952,11.048 32.201952,11.043 32.204952,11.039" id="Fill-3"></path>
                <path d="M5.00725199,6.2507 C6.23825199,7.3597 6.33825199,9.2567 5.22925199,10.4877 C4.12025199,11.7187 2.22425199,11.8187 0.992251986,10.7097 C-0.238748014,9.6007 -0.337748014,7.7037 0.770251986,6.4727 C1.87925199,5.2417 3.77625199,5.1417 5.00725199,6.2507" id="Fill-9"></path>
                <path d="M35.700352,6.1569 C36.931352,7.2659 37.031352,9.1629 35.922352,10.3939 C33.619352,12.9519 31.443352,10.3979 31.685352,10.6159 C30.454352,9.5069 30.355352,7.6099 31.463352,6.3789 C32.572352,5.1479 34.469352,5.0479 35.700352,6.1569" id="Fill-13"></path>
            </g>
        </g>
    </g>
</svg>