<?xml version="1.0" encoding="UTF-8"?>
<svg width="47.25px" height="45px" viewBox="0 0 63 60" version="1.1" xmlns="http://www.w3.org/2000/svg" xmlns:xlink="http://www.w3.org/1999/xlink">
    <title>ic_statusbar_wifi2</title>
    <g id="ic_statusbar_wifi2" stroke="none" stroke-width="1" fill="none" fill-rule="evenodd">
        <g id="wifi">
            <path d="M36,47.5 C36,49.985 33.985,52 31.5,52 C29.015,52 27,49.985 27,47.5 C27,45.015 29.015,43 31.5,43 C33.985,43 36,45.015 36,47.5" id="形状结合" fill="#000000"></path>
            <g id="编组" opacity="0.2" transform="translate(6.000000, 8.000000)" fill="#000000">
                <path d="M39.204952,23.039 C39.826952,22.247 40.557952,21.548 41.141952,20.726 C41.225952,20.609 41.320952,20.505 41.422952,20.414 C41.861952,19.646 42.258952,18.896 42.746952,18.201 C37.847952,14.207 31.746952,12 25.393952,12 C19.005952,12 12.858952,14.209 7.94595199,18.243 C9.10095199,19.894 11.6039116,23.0282104 11.6911436,22.9559131 C15.5433442,19.7632396 20.3677686,18 25.393952,18 C30.464952,18 35.327952,19.803 39.196952,23.052 C39.199952,23.048 39.201952,23.043 39.204952,23.039" id="Fill-3"></path>
                <path d="M12.007252,18.2507 C13.238252,19.3597 13.338252,21.2567 12.229252,22.4877 C11.120252,23.7187 9.22425199,23.8187 7.99225199,22.7097 C6.76125199,21.6007 6.66225199,19.7037 7.77025199,18.4727 C8.87925199,17.2417 10.776252,17.1417 12.007252,18.2507" id="Fill-9"></path>
                <path d="M42.700352,18.1569 C43.931352,19.2659 44.031352,21.1629 42.922352,22.3939 C40.619352,24.9519 38.443352,22.3979 38.685352,22.6159 C37.454352,21.5069 37.355352,19.6099 38.463352,18.3789 C39.572352,17.1479 41.469352,17.0479 42.700352,18.1569" id="Fill-13"></path>
                <path d="M0.791251986,9.097 C0.879251986,9.211 0.954251986,9.347 1.02225199,9.492 C1.09925199,9.564 1.17425199,9.639 1.23525199,9.729 C1.27025199,9.78 1.31025199,9.827 1.34525199,9.877 C1.49925199,10.029 1.64325199,10.195 1.75925199,10.388 C1.79125199,10.441 1.82325199,10.494 1.85525199,10.547 C2.74625199,11.635 3.79225199,12.59 4.73325199,13.635 C10.586252,8.713 17.958252,6 25.633252,6 C33.223252,6 40.524252,8.641 46.346252,13.459 C47.765252,12.038 50.3871485,9.02533091 50.2799545,8.93593216 C43.3639323,3.16803392 34.6731395,-4.4408921e-15 25.633252,-4.4408921e-15 C16.508252,-4.4408921e-15 7.73825199,3.226 0.791251986,9.097 Z" id="Fill-5"></path>
                <path d="M5.00725199,8.9692 C6.23825199,10.0782 6.33825199,11.9752 5.22925199,13.2062 C4.12025199,14.4372 2.22425199,14.5372 0.992251986,13.4282 C-0.238748014,12.3192 -0.337748014,10.4222 0.770251986,9.1912 C1.87925199,7.9602 3.77625199,7.8602 5.00725199,8.9692" id="Fill-7"></path>
                <path d="M50.275152,8.9761 C49.044152,7.8671 47.147152,7.9671 46.038152,9.1981 C44.930152,10.4291 45.029152,12.3261 46.260152,13.4351 C47.492152,14.5441 49.389152,14.4441 50.497152,13.2131 C51.606152,11.9821 51.506152,10.0851 50.275152,8.9761" id="Fill-17"></path>
            </g>
            <g id="编组-2" transform="translate(21.000000, 32.000000)" fill="#000000">
                <path d="M10.770752,-2.66453526e-15 C7.14775199,-2.66453526e-15 3.65575199,1.189 0.794751986,3.365 C0.924751986,3.505 1.04575199,3.655 1.14675199,3.824 C1.24375199,3.986 1.34275199,4.146 1.43975199,4.308 C1.64275199,4.487 1.82075199,4.703 1.95975199,4.949 C2.61675199,6.112 3.73075199,7.026 4.82875199,7.856 C6.56975199,6.656 8.63275199,6 10.770752,6 C12.896752,6 14.948752,6.65 16.684752,7.836 C17.854752,6.192 19.111752,4.599 20.637752,3.275 C17.796752,1.154 14.346752,-2.66453526e-15 10.770752,-2.66453526e-15" id="Fill-1"></path>
                <path d="M5.00725199,3.2374 C6.23825199,4.3464 6.33825199,6.2434 5.22925199,7.4744 C4.12025199,8.7054 2.22325199,8.8054 0.992251986,7.6964 C-0.238748014,6.5874 -0.337748014,4.6904 0.770251986,3.4594 C1.87925199,2.2284 3.77625199,2.1284 5.00725199,3.2374" id="Fill-11"></path>
                <path d="M20.597052,3.2374 C21.828052,4.3464 21.928052,6.2434 20.819052,7.4744 C19.710052,8.7054 17.814052,8.8054 16.582052,7.6964 C15.351052,6.5874 15.252052,4.6904 16.360052,3.4594 C17.469052,2.2284 19.366052,2.1284 20.597052,3.2374" id="Fill-15"></path>
            </g>
        </g>
    </g>
</svg>