<?xml version="1.0" encoding="UTF-8"?>
<svg width="40px" height="40px" viewBox="0 0 40 40" version="1.1" xmlns="http://www.w3.org/2000/svg"
     xmlns:xlink="http://www.w3.org/1999/xlink">
    <title>默认头像icon</title>
    <g id="默认头像icon" stroke="none" stroke-width="1" fill="none" fill-rule="evenodd">
        <!--        <rect fill="#000000" x="0" y="0" width="40" height="40"></rect>-->
        <circle
                cx="20"
                cy="20"
                r="20"
                fill="#000"
                opacity=".2"/>
        <g id="编组-2">
            <circle id="Oval-3" opacity="0.4" cx="20" cy="20" r="20"></circle>
            <path d="M19.9334831,25.7142857 C26.1211343,25.7142857 29.3069514,28.1482986 31.0172895,30.3557901 L31.3303083,30.7795035 C31.379544,30.8494129 31.4273469,30.9189079 31.473768,30.9878992 L31.7223778,31.3728576 L31.9434819,31.7434234 L32.1391518,32.0959851 L32.3894999,32.5831708 L32.7089266,33.2539683 L32.797241,33.4584525 C29.4661824,36.6268494 24.9601816,38.5714286 20,38.5714286 C14.9914494,38.5714286 10.4459807,36.5887395 7.10564693,33.3654147 L7.15803961,33.2539683 L7.48747739,32.5831708 L7.74176764,32.0959851 L7.93930437,31.7434234 L8.16172143,31.3728576 L8.41113806,30.9878992 L8.55483616,30.7795035 L8.55483616,30.7795035 L8.86797414,30.3557901 C10.5777692,28.1482986 13.7458319,25.7142857 19.9334831,25.7142857 Z"
                  id="路径" fill="#FFFFFF"></path>
            <path d="M19.9334831,9.28571429 C16.1858366,9.28571429 13.1477688,12.3237821 13.1477688,16.0714286 C13.1477688,19.8190751 16.1858366,22.8571429 19.9334831,22.8571429 C23.6811296,22.8571429 26.7191974,19.8190751 26.7191974,16.0714286 C26.7191974,12.3237821 23.6811296,9.28571429 19.9334831,9.28571429 Z"
                  id="路径" fill="#FFFFFF" fill-rule="nonzero"></path>
        </g>
    </g>
</svg>