<?xml version="1.0" encoding="UTF-8"?>
<svg width="12px" height="16px" viewBox="0 0 12 16" version="1.1" xmlns="http://www.w3.org/2000/svg" xmlns:xlink="http://www.w3.org/1999/xlink">
    <title>empties</title>
    <defs>
        <filter color-interpolation-filters="auto" id="filter-1">
            <feColorMatrix in="SourceGraphic" type="matrix" values="0 0 0 0 0.000000 0 0 0 0 0.490196 0 0 0 0 1.000000 0 0 0 1.000000 0"></feColorMatrix>
        </filter>
        <path d="M9.84266667,0.666514678 L14,4.82351468 L14,5.83251468 L10.8333333,5.83333333 C9.72876383,5.83333333 8.83333333,4.93790283 8.83333333,3.83333333 L8.833,1.66551468 L4.66666667,1.66666667 C3.76179335,1.66666667 3.02534471,2.38777846 3.0006403,3.28668253 L3,12.6666667 C3,13.57154 3.7211118,14.3079886 4.62001586,14.332693 L11.3333333,14.3333333 C12.2382067,14.3333333 12.9746553,13.6122215 12.9993597,12.7133175 L13,12.6666667 L13,6.49951468 L14,6.49951468 L14,12.6666667 C14,14.139426 12.8060927,15.3333333 11.3333333,15.3333333 L4.66666667,15.3333333 C3.19390733,15.3333333 2,14.139426 2,12.6666667 L2,3.33333333 C2,1.860574 3.19390733,0.666666667 4.66666667,0.666666667 L9.84266667,0.666514678 Z M11,9.83333333 C11.2761424,9.83333333 11.5,10.057191 11.5,10.3333333 C11.5,10.6094757 11.2761424,10.8333333 11,10.8333333 L5,10.8333333 C4.72385763,10.8333333 4.5,10.6094757 4.5,10.3333333 C4.5,10.057191 4.72385763,9.83333333 5,9.83333333 L11,9.83333333 Z M7.66666667,7 C7.94280904,7 8.16666667,7.22385763 8.16666667,7.5 C8.16666667,7.77614237 7.94280904,8 7.66666667,8 L5,8 C4.72385763,8 4.5,7.77614237 4.5,7.5 C4.5,7.22385763 4.72385763,7 5,7 L7.66666667,7 Z M9.833,2.07051468 L9.83333333,3.83333333 C9.83333333,4.37306616 10.2609291,4.81292863 10.7958436,4.83264359 L12.595,4.83251468 L9.833,2.07051468 Z" id="path-2"></path>
    </defs>
    <g id="1128sample" stroke="none" stroke-width="1" fill="none" fill-rule="evenodd">
        <g id="证书管理" transform="translate(-256.000000, -96.000000)">
            <g id="Buttons/Small/Normal/Enabled备份" transform="translate(244.000000, 90.000000)">
                <g id="empties" transform="translate(10.000000, 6.000000)" filter="url(#filter-1)">
                    <g>
                        <mask id="mask-3" fill="white">
                            <use xlink:href="#path-2"></use>
                        </mask>
                        <g id="形状结合" fill-rule="nonzero"></g>
                        <g id="编组" mask="url(#mask-3)" fill="#1F69FF">
                            <g id="Symbol/color-light/colorPrimary">
                                <rect id="color/#000000" x="0" y="0" width="16" height="16"></rect>
                            </g>
                        </g>
                    </g>
                </g>
            </g>
        </g>
    </g>
</svg>