<?xml version="1.0" encoding="UTF-8"?>
<svg width="14px" height="14px" viewBox="0 0 14 14" version="1.1" xmlns="http://www.w3.org/2000/svg" xmlns:xlink="http://www.w3.org/1999/xlink">
    <title>presentation</title>
    <defs>
        <filter color-interpolation-filters="auto" id="filter-1">
            <feColorMatrix in="SourceGraphic" type="matrix" values="0 0 0 0 0.000000 0 0 0 0 0.490196 0 0 0 0 1.000000 0 0 0 1.000000 0"></feColorMatrix>
        </filter>
        <path d="M11.2481531,1.33333333 C11.9148971,1.33333333 12.343275,1.37227248 12.6676087,1.44748158 L11.7727707,2.34251075 C11.6571207,2.33767572 11.5283262,2.33485288 11.3835587,2.33380436 L11.3169744,2.33345028 L4.68302556,2.33345028 L4.54870536,2.33443867 C3.7700544,2.34345113 3.47321072,2.40870356 3.16913792,2.57132347 C2.90883849,2.71053313 2.71053313,2.90883849 2.57132347,3.16913792 C2.39526772,3.49833354 2.33333333,3.81905614 2.33333333,4.75184693 L2.33345028,11.3169744 L2.33443867,11.4512946 C2.34345113,12.2299456 2.40870356,12.5267893 2.57132347,12.8308621 C2.71053313,13.0911615 2.90883849,13.2894669 3.16913792,13.4286765 C3.48187376,13.5959295 3.7869627,13.6601879 4.61644126,13.6661956 L11.2481531,13.6666667 C12.1809439,13.6666667 12.5016665,13.6047323 12.8308621,13.4286765 C13.0911615,13.2894669 13.2894669,13.0911615 13.4286765,12.8308621 C13.5959295,12.5181262 13.6601879,12.2130373 13.6661956,11.3835587 L13.6666667,11.2481531 L13.6666667,4.75184693 C13.6666667,4.5508517 13.663791,4.37827507 13.6575176,4.22790872 L14.5526496,3.33295709 C14.6277728,3.65722321 14.6666667,4.08549051 14.6666667,4.75184693 L14.6666667,11.2481531 L14.6659955,11.3958438 C14.6561601,12.4495873 14.5384171,12.8677081 14.3251767,13.27472 L14.3104897,13.3024609 C14.0891474,13.7163351 13.7692636,14.0453871 13.3639043,14.2765509 L13.3024609,14.3104897 C12.867893,14.5428992 12.4368447,14.6666667 11.2481531,14.6666667 L4.60415617,14.6659955 C3.55041266,14.6561601 3.13229188,14.5384171 2.72527999,14.3251767 L2.69753906,14.3104897 C2.28366487,14.0891474 1.95461287,13.7692636 1.72344905,13.3639043 L1.68951027,13.3024609 C1.45710081,12.867893 1.33333333,12.4368447 1.33333333,11.2481531 L1.33333333,4.75184693 C1.33333333,3.58844659 1.45189014,3.15079242 1.67482332,2.72527999 L1.68951027,2.69753906 C1.91085261,2.28366487 2.23073643,1.95461287 2.63609573,1.72344905 L2.69753906,1.68951027 C3.13210696,1.45710081 3.56315528,1.33333333 4.75184693,1.33333333 L11.2481531,1.33333333 Z M14.8200517,1.1799483 C15.0804012,1.44029783 15.0804012,1.86240781 14.8200517,2.12275734 L8.45609067,8.48671837 C8.19574114,8.7470679 7.77363116,8.7470679 7.51328163,8.48671837 C7.2529321,8.22636884 7.2529321,7.80425886 7.51328163,7.54390933 L13.8772427,1.1799483 C14.1375922,0.919598769 14.5597022,0.919598769 14.8200517,1.1799483 Z" id="path-2"></path>
    </defs>
    <g id="1128sample" stroke="none" stroke-width="1" fill="none" fill-rule="evenodd">
        <g id="证书管理" transform="translate(-268.000000, -471.000000)">
            <g id="Buttons/Small/Normal/Enabled" transform="translate(244.000000, 464.000000)">
                <g id="presentation" transform="translate(23.000000, 6.000000)" filter="url(#filter-1)">
                    <g>
                        <mask id="mask-3" fill="white">
                            <use xlink:href="#path-2"></use>
                        </mask>
                        <g id="形状结合" fill-rule="nonzero"></g>
                        <g id="编组" mask="url(#mask-3)" fill="#1F69FF">
                            <g id="Symbol/color-light/colorPrimary">
                                <rect id="color/#000000" x="0" y="0" width="16" height="16"></rect>
                            </g>
                        </g>
                    </g>
                </g>
            </g>
        </g>
    </g>
</svg>